<svg width="1280" height="1280" viewBox="0 0 1280 1280" fill="none" xmlns="http://www.w3.org/2000/svg">
<rect width="1280" height="1280" fill="white"/>
<path d="M499.18 825.89C512.06 781.71 524.45 739.06 536.93 696.43C568.76 587.72 600.4 478.95 633.03 370.47C633.98 367.3 635.29 364.23 636.49 361.14C636.77 360.41 637.33 359.92 637.1 358.91C636.04 354.07 636.71 353.3 641.59 354.44C647.9 355.9 654.17 357.6 660.38 359.44C662.59 360.09 663.41 359.94 664.3 357.54C669.7 342.97 673.69 340.45 689.21 340.91C693.89 341.05 698.5 341.68 703.08 342.57C704.76 342.9 705.76 343 706.21 340.8C711.96 312.65 724.57 287.02 735.99 261C760.04 206.22 786.89 152.86 817.6 101.45C823.26 91.9901 830.49 88.4301 841.14 89.6401C865.96 92.4601 890.73 95.5901 915.18 100.85C916.16 101.06 917.12 101.32 918.08 101.58C939.68 107.62 946.09 117.69 942.48 140.01C938 167.75 928.85 194.19 920.23 220.79C906.34 263.64 887.41 304.43 869.57 345.68C863.23 360.34 857.91 375.43 851.84 390.21C850.39 393.75 850.98 395.57 853.82 398.12C863.11 406.44 870.03 416.02 866.39 429.58C865.77 431.88 867.24 432.17 868.62 432.56C872.13 433.57 875.69 434.44 879.22 435.39C887.7 437.67 889.74 444.81 883.53 451.03C881.83 452.73 881.49 454.78 880.95 456.82C865.41 516.29 846.39 574.6 823.03 631.49C773.09 753.11 711.07 867.95 631.61 973.01C630.83 974.04 630.16 975.15 629.41 976.25C630.86 977.67 632.43 977.01 633.8 977C669.63 976.63 705.45 975.79 741.29 976.2C743.68 976.23 745.75 975.92 747.77 974.33C783.33 946.4 821.4 922.15 859.83 898.47C900.66 873.31 942.27 849.51 984.84 827.41C988.52 825.5 992.33 823.73 996.26 822.45C1002.91 820.28 1006.07 822.26 1009.68 828.25C1015.44 837.81 1021.24 847.31 1024.95 857.91C1039.45 899.33 1034.72 938.81 1012.96 976.56C1009.99 981.71 1009.92 981.75 1015.72 981.81C1052.05 982.2 1088.38 982.75 1124.64 979.65C1134.06 978.84 1139.41 983.59 1139.89 993.23C1140.65 1008.54 1141.22 1023.86 1141.88 1039.17C1143.56 1078.12 1145.59 1117.04 1150.75 1155.73C1152.39 1168.03 1147.11 1175.61 1134.78 1177.03C1114.93 1179.32 1095 1180.97 1075.11 1182.92C1020.21 1188.29 965.21 1192.06 910.09 1194.3C852.14 1196.65 794.17 1198.21 736.17 1198.1C666.51 1197.96 596.84 1197.79 527.19 1199.31C439.72 1201.21 352.26 1203.38 264.77 1203.99C226.27 1204.26 187.78 1203.97 149.42 1200.05C144.12 1199.51 138.81 1198.97 133.75 1197.13C126.39 1194.45 121.91 1189.36 120.79 1181.48C119.13 1169.82 120.88 1158.18 121.3 1146.56C122.34 1117.74 121.1 1088.89 122.96 1060.09C123.93 1045.1 126.14 1030.31 129.6 1015.7C130.98 1009.89 133.78 1005.53 140.32 1004.88C143.6 1004.56 142.18 1002.24 141.92 1000.74C140.2 990.56 138.56 980.39 137.75 970.07C134.29 925.93 146.76 886.87 172.97 851.24C192.15 825.16 216.76 806.34 244.58 790.96C256.84 784.18 268.44 776.46 279.73 768.13C287.24 762.59 294.57 756.97 301.14 750.34C308.03 743.38 316.66 739.47 326.05 737.35C332.72 735.84 339.49 736.23 345.34 740.14C354.59 746.32 364.98 748.74 375.66 750.9C407.99 757.42 437.09 771.44 463.87 790.34C477.32 799.84 490.29 810.02 499.15 825.92L499.18 825.89ZM789.22 1007.57C790.46 1007.98 791.74 1008.33 792.95 1008.82C806.65 1014.4 820.95 1016.53 835.54 1014.61C872.31 1009.76 904.27 994.3 931.27 969C958.77 943.24 977.11 911.37 991.12 876.78C996.5 863.48 1000.81 849.86 1001.89 835.45C1002.29 830.13 1001.21 829.44 996.35 831.56C987.64 835.36 979.58 840.38 971.31 845.01C969.65 845.94 969.14 847.26 968.94 849.05C967.59 861.43 963.72 873.11 958.04 884.1C946.8 905.85 934.02 926.71 919.99 946.76C906.01 966.73 888.03 982.31 866.63 994.03C846.92 1004.83 826.02 1010.33 803.43 1009.24C798.61 1009.01 794.11 1006.61 789.2 1007.6C787.99 1004.5 790.36 1003.93 792.38 1003.21C799.66 1000.61 807.31 999.9 814.91 999.09C848.11 995.53 877.04 982.52 899.9 958.16C924.64 931.8 941.51 900.14 956.96 867.76C959.44 862.57 961.21 857.04 961.98 850.8C960.77 851.36 960 851.64 959.31 852.05C947 859.36 934.85 866.96 922.35 873.91C914.73 878.15 910.4 883.77 906.35 891.9C882.84 939.16 846.41 970.14 792.35 976.83C788.14 977.35 783.75 977.57 779.37 976.11C804.74 968.07 830.85 962.83 852.62 945.82C876.57 927.11 899.69 899.62 903.21 885.63C853 916.15 803.71 947.74 754.47 978.98C766.49 988.31 776.04 1000.17 789.22 1007.57ZM826.94 1048C826.7 1046.82 825.7 1047.02 825.01 1046.8C795.33 1037.6 769.95 1021.82 750.14 997.62C748.6 995.74 746.84 995.68 744.84 995.66C702.18 995.35 659.52 995.54 616.87 996.78C615.24 996.83 613.5 996.56 612.24 998.06C608 1003.13 603.75 1008.2 599.36 1013.44C601.93 1014.46 603.96 1013.44 606.01 1013.15C608.15 1012.85 610.25 1012.26 612.39 1012.04C616.62 1011.59 619.99 1014.13 620.14 1017.94C620.3 1022.14 618 1024.77 613.95 1024.94C596.79 1025.67 579.81 1028.22 562.76 1030.03C531.3 1033.36 499.89 1037.1 468.44 1040.53C450.56 1042.48 432.71 1044.83 414.69 1044.95C412.38 1044.97 410.06 1044.6 407.76 1044.28C406.43 1044.1 405.01 1043.69 404.81 1042.07C404.58 1040.2 406.01 1039.45 407.46 1038.94C409.49 1038.22 411.53 1037.41 413.64 1037.02C421.33 1035.6 429.03 1034.28 436.75 1033.04C438.5 1032.76 439.86 1032.58 440.41 1030.47C442.52 1022.46 444.79 1014.5 447.12 1006.11C445.3 1006.11 443.99 1006.01 442.69 1006.12C418.46 1008.24 394.24 1010.35 370.02 1012.55C339 1015.37 307.97 1018.18 276.87 1019.99C241.07 1022.08 205.26 1022.1 169.44 1020.44C163.46 1020.16 157.48 1020.65 151.57 1021.97C149.36 1022.47 148.6 1023.49 148.09 1025.47C144.65 1038.92 142.43 1052.57 142.28 1066.43C141.91 1101.42 141.92 1136.42 141.54 1171.41C141.49 1176.25 143.46 1177.53 147.79 1178.07C176.78 1181.71 205.93 1182.57 235.09 1182.78C288.92 1183.16 342.75 1182.27 396.56 1180.95C485.52 1178.77 574.48 1176.29 663.46 1175.14C744.78 1174.09 826.07 1172.63 907.34 1169.35C979.81 1166.43 1051.9 1158.9 1124.17 1153.68C1129.07 1153.33 1129.63 1151.39 1129.34 1147.18C1126.11 1100.48 1123.33 1053.74 1121.09 1006.98C1120.72 999.27 1121.87 999.81 1113.93 1000.14C1075.29 1001.74 1036.65 1002.87 997.99 1001.28C995.18 1001.16 993.39 1002.38 991.53 1004.27C975.44 1020.69 956.58 1032.94 935.14 1041.2C930.42 1043.02 925.65 1044.68 920.9 1046.41C961.68 1047.34 1002.25 1049.37 1042.87 1050.66C1029.6 1053.95 1016.12 1054.57 1002.7 1054.56C952.19 1054.54 901.76 1056.27 851.36 1059.69C819.62 1061.84 787.83 1063.44 756.05 1064.98C734.58 1066.02 713.09 1066.5 691.6 1067.25C646.97 1068.81 602.35 1070.42 557.72 1071.95C514.42 1073.43 471.12 1074.88 427.82 1076.26C377.86 1077.85 327.91 1080.46 277.9 1078.99C258.22 1078.41 238.69 1076.34 219.9 1069.91C217.41 1069.06 214.47 1068.66 212.66 1065.29C215.68 1064.91 218.04 1065.13 220.49 1065.46C227.91 1066.44 235.34 1067.49 242.81 1067.96C285.02 1070.62 327.06 1066.47 369.16 1064.61C404.44 1063.05 439.7 1060.83 474.97 1059.09C506.75 1057.52 538.55 1056.26 570.34 1054.77C619.28 1052.48 668.24 1050.91 717.22 1050.1C752.21 1049.52 787.21 1049.16 822.2 1048.66C823.76 1048.64 825.5 1049.2 826.93 1048H826.94ZM486.56 1026.73C488.47 1026.73 489.79 1026.86 491.07 1026.71C516.21 1023.83 541.34 1020.92 566.48 1018.02C567.79 1017.87 569.07 1017.9 570.19 1016.87C578.59 1009.06 587.13 1001.44 594.43 992.47C619.6 961.57 643.01 929.39 665.01 896.19C727.78 801.48 778.3 700.35 822.17 595.75C840.46 552.14 855.17 507.25 869.92 462.36C873.81 450.53 874.09 450.33 862.43 445.97C805.09 424.53 747.68 403.28 690.34 381.83C686.77 380.5 686.59 382.33 685.85 384.73C667.25 445.28 648.72 505.86 629.92 566.35C585.46 709.41 541.86 852.74 496.27 995.45C492.99 1005.71 489.87 1016.03 486.55 1026.71L486.56 1026.73ZM644.84 363.56C634.9 399.3 625.12 434.73 615.19 470.1C579.42 597.4 543.65 724.7 507.77 851.96C498.52 884.77 488.89 917.48 479.44 950.24C472.21 975.33 465.06 1000.45 457.69 1025.5C456.58 1029.28 456.91 1030.75 461.18 1030.02C464.46 1029.46 467.79 1029.06 471.1 1028.94C474.62 1028.82 476.27 1027.26 477.31 1023.86C482.6 1006.53 488.2 989.3 493.62 972.01C541.94 817.8 591.63 664.02 640.83 510.08C654.39 467.64 668.13 425.27 681.77 382.85C682.32 381.13 683.76 379.32 680.66 378.1C668.61 373.34 656.65 368.37 644.83 363.56H644.84ZM263.43 1001.77C257.11 994.23 253.77 986.65 251.91 978.46C245.47 950.21 245.72 921.98 252.9 893.91C259.49 868.17 273.17 847.41 296.34 833.53C299.05 831.91 301.57 829.97 304.21 828.23C315.7 820.64 325.14 810.77 334.72 801.01C346.59 788.91 359.41 786.35 373.11 794.18C389.6 803.59 407.26 809.64 425.25 815.22C441.67 820.31 457.57 826.72 470.68 838.45C477.65 844.68 483.35 851.99 489.15 860.59C491.27 853.21 493.17 846.74 494.98 840.24C495.48 838.44 494.25 837.09 493.39 835.67C488.78 828.05 483 821.41 476.3 815.58C448.67 791.53 416.07 776.66 381.86 764.98C367.55 760.09 353.01 756.25 340.13 747.65C331.41 741.83 319.89 746.12 315.42 755.69C313.38 760.05 311.51 764.55 310.17 769.16C306.88 780.54 299.94 788.64 289.65 794.35C280.19 799.6 270.88 805.22 262.93 812.67C219.57 853.29 201.2 902.83 210.25 961.91C212.25 974.95 215.71 987.64 222.94 998.94C224.13 1000.8 224.93 1003.31 227.94 1003.19C239.37 1002.72 250.79 1002.28 263.44 1001.78L263.43 1001.77ZM479.43 894.1C482.15 884.74 484.58 876.31 487.05 867.9C487.5 866.36 487.38 865.18 486.34 863.78C472.31 844.83 454.85 830.43 432.19 822.99C410.55 815.89 388.82 809.08 368.8 797.85C362.89 794.53 356.67 795.16 350.51 797.77C344.95 800.11 340.69 804.03 336.95 808.54C325.91 821.87 313.06 833.12 298.49 842.42C280.68 853.78 269.53 869.93 263.55 890.03C255.9 915.73 255.39 941.84 258.59 968.18C259.84 978.47 262.42 988.41 267.91 997.43C269.57 1000.15 271.39 1001.4 274.72 1001.09C284.5 1000.2 294.3 999.4 304.12 998.99C308.46 998.81 308.84 997.48 307.01 994.02C306.01 992.14 305.45 989.99 304.93 987.9C299.17 964.39 299.18 940.73 303.54 917.06C307.33 896.48 316.14 879.63 337.72 872.4C343.15 870.58 347.28 866.32 350.62 861.66C365.04 841.57 385.42 837.22 407.86 841.7C439.04 847.93 463.71 864.2 479.43 894.12V894.1ZM815.25 1028.22C816.22 1030.15 817.91 1030.17 819.22 1030.6C881.84 1050.93 937.43 1039.12 984.13 992.4C1023.28 953.24 1033.48 896.49 1012 847.55C1011.53 846.48 1010.83 845.52 1009.79 843.73C1009.22 846.69 1008.92 848.63 1008.46 850.53C997.1 896.68 976.24 937.91 943.3 972.35C914.45 1002.51 878.86 1020.63 837.6 1027.42C830.26 1028.63 822.84 1028.03 815.25 1028.22ZM470.62 924.72C472.61 917.74 474.29 911.48 476.23 905.31C476.86 903.32 476.34 901.79 475.57 900.1C460.36 866.56 421.6 845.12 390.13 846.71C375.95 847.42 364.24 852.3 355.98 864.2C350.91 871.5 344.47 877.28 336.25 880.56C324.2 885.37 317.78 894.61 313.97 906.42C307.35 926.95 307.05 948.01 308.47 969.2C309.04 977.66 310.2 986.07 312.9 994.2C313.73 996.68 314.69 998.18 317.77 997.83C326.7 996.8 335.65 995.94 344.62 995.24C347.43 995.02 348.47 994.28 347.77 991.32C345.08 979.94 343.84 968.37 343.54 956.7C343.13 940.55 345.04 924.79 352.11 910.02C360.16 893.21 370.99 887.61 389.26 890.6C395.22 891.58 401.13 891.54 407.11 890.26C413.74 888.84 420.45 886.71 427.31 888.62C446.8 894.04 462.3 904.39 470.6 924.73L470.62 924.72ZM305.96 754.6C299.59 759.97 294.73 765.66 289.71 771.19C285.29 776.06 280.22 779.93 274.43 783.07C237.16 803.31 206.4 830.95 182.77 866.12C161.93 897.13 150.86 931.15 155.09 968.99C156.3 979.86 157.26 990.88 161.88 1001.1C163 1003.59 164.19 1005 167.38 1004.88C182.03 1004.33 196.69 1004.14 211.35 1003.74C213.24 1003.69 215.33 1004.23 217.3 1002.61C212.58 996.28 208.69 989.55 205.95 982.19C198.02 960.88 195.42 938.85 197.84 916.35C203.88 860.12 231.42 817.32 280.61 789.62C295 781.52 302.51 770.69 305.96 754.59V754.6ZM462.74 951.66C464.17 946.81 465.41 943.02 466.38 939.16C466.92 937 468.21 935.04 467.28 932.48C461.37 916.19 450.02 905.17 434.54 897.95C427.45 894.64 420.22 893.73 412.68 895.79C404.55 898.01 396.31 898.78 387.94 897.73C372.52 895.8 366.45 899.05 359.73 913.03C358.65 915.27 357.71 917.59 356.89 919.94C348.66 943.51 350.47 967.48 353.9 991.55C354.35 994.74 356.38 994.11 358.28 993.95C366.41 993.25 374.53 992.33 382.66 991.79C386.58 991.53 387.01 990.42 385.79 986.67C379.64 967.74 383.28 950.54 396.13 935.41C400.21 930.61 405.69 927.59 412.07 928.89C422.96 931.1 433.72 933.97 444.48 936.74C447.73 937.58 450.4 939.75 453 941.84C456.36 944.55 459.37 947.63 462.74 951.67V951.66ZM399.68 989.96C416.28 988.59 432.87 987.16 449.47 985.89C452 985.7 453.35 984.86 454.03 982.32C455.87 975.41 457.99 968.58 459.9 961.68C460.22 960.51 461.25 959.13 459.82 958C451.44 951.39 444.78 942.23 433.04 940.61C427.46 939.84 421.93 938.5 416.5 936.97C409.82 935.09 404.72 937.11 400.69 942.4C391.26 954.76 388.1 968.63 391.17 983.84C392.53 990.59 392.69 990.56 399.68 989.96ZM737.94 352.94C738.89 353.12 739.5 352.29 740.18 351.56C754.2 336.59 770.22 323.8 785.5 310.22C787.71 308.25 788.4 306.75 786.93 303.94C783.46 297.33 780.13 290.62 777.13 283.78C775.53 280.12 774.42 279.85 771.36 282.59C757.86 294.68 744.85 307.35 730.18 318.07C728.76 319.1 728.02 320.57 727.28 322.06C723.82 329.06 720.53 336.15 716.24 342.71C715.7 343.54 714.22 344.9 716 345.54C723.18 348.13 730.46 350.45 737.93 352.94H737.94ZM852.31 427.07C852.16 417.91 846.79 412.94 840.03 409.3C834.16 406.14 827.64 404.52 821.17 402.92C803.91 398.66 786.39 395.24 770.32 387.1C752.33 378 733.37 371.19 714.57 364.02C705.37 360.51 695.88 358.14 686.07 356.96C680.35 356.27 676.43 358.03 674.21 363.71C733.79 383.83 792.55 406.02 852.32 427.07H852.31ZM843.76 270.76C829.34 284.06 815.3 297.04 801.21 309.95C799.45 311.57 799.86 312.95 800.74 314.78C804.61 322.88 808.44 331 812.1 339.2C813.29 341.87 814.24 341.73 816.27 340.01C829.75 328.61 843.32 317.33 856.85 306C857.96 305.07 859.33 304.48 858.36 302.42C853.49 292.07 848.77 281.66 843.76 270.75V270.76ZM794.55 302.07C809.44 289.4 824.11 276.9 838.81 264.43C840.01 263.41 840.28 262.37 839.63 260.93C835.46 251.75 831.32 242.55 826.96 232.9C811.45 246.82 796.49 260.25 781.5 273.64C780.14 274.85 779.94 275.85 780.86 277.47C785.44 285.54 789.89 293.67 794.55 302.07ZM889.13 221.01C888.96 220.64 888.78 220.18 888.53 219.75C883.68 211.42 878.79 203.11 874.01 194.74C872.74 192.52 871.72 193.11 870.23 194.44C858.07 205.3 845.89 216.14 833.65 226.9C831.9 228.44 831.39 229.69 832.5 231.97C836.38 239.87 840.14 247.83 843.69 255.89C844.89 258.62 845.77 258.55 847.86 256.79C860.95 245.74 874.14 234.8 887.28 223.81C888.13 223.1 889.31 222.55 889.14 221.01H889.13ZM921.9 132.12C923.24 126.67 920.73 123.74 915.37 122.69C913.59 122.34 911.88 121.64 910.12 121.13C908.22 120.57 906.7 120.98 905.16 122.4C891.47 135.01 877.74 147.58 863.93 160.06C862.08 161.73 861.85 163.04 863.14 165.11C865.6 169.05 868.08 173.01 870.1 177.19C871.95 181.01 873.42 181.45 876.77 178.45C889.91 166.71 903.19 155.14 916.67 143.79C920.47 140.59 922.49 137.14 921.9 132.12ZM792.53 318.3C792 318.73 791.35 319.21 790.75 319.75C777.67 331.56 765.09 343.93 751.48 355.16C750.23 356.19 749.04 357.11 751.61 358.23C761.35 362.48 771.04 366.86 780.73 371.23C781.9 371.76 782.75 372.02 783.72 370.79C789.85 363.06 797.42 356.78 804.63 350.14C806.13 348.76 806.17 347.54 805.38 345.77C801.65 337.44 798.06 329.05 794.39 320.68C794.01 319.81 793.92 318.68 792.52 318.3H792.53ZM892.08 228.26C891.62 228.6 891.06 228.96 890.57 229.39C877.23 241.17 863.94 253 850.54 264.71C848.52 266.48 849.07 268 849.94 269.94C853.72 278.43 857.37 286.99 861.17 295.47C861.88 297.05 862.05 299.72 863.89 299.79C866.01 299.87 867.55 297.76 868.78 295.96C869.33 295.15 869.67 294.18 870.06 293.26C878.39 273.87 886.15 254.25 893.1 234.32C893.59 232.92 894.42 231.58 894.08 230.01C893.87 229.03 893.58 228.02 892.08 228.25V228.26ZM774.1 265.2C775.33 264.22 776.37 263.42 777.37 262.58C788.45 253.24 799.61 244 810.56 234.51C814.54 231.07 821.24 228.58 821.67 223.81C822.08 219.23 817.8 214.22 815.58 209.4C815.37 208.95 815.1 208.52 814.92 208.06C814.02 205.72 812.88 206.07 811.3 207.53C796.4 221.35 781.46 235.13 766.51 248.89C765.29 250.02 764.6 250.97 765.77 252.68C768.21 256.25 770.42 259.97 772.75 263.62C773.08 264.14 773.55 264.57 774.09 265.2H774.1ZM868.01 184.5C867.66 183.81 867.24 182.91 866.76 182.05C864.31 177.71 861.72 173.44 859.44 169.01C858.08 166.37 857.05 166.23 854.86 168.26C846.55 175.94 837.97 183.32 829.71 191.05C825.75 194.76 818.94 197.56 818.59 202.44C818.25 207.15 822.81 212.21 825.22 217.12C825.29 217.27 825.4 217.4 825.46 217.56C826.37 220.04 827.5 220.5 829.72 218.58C841.81 208.15 854.01 197.84 866.16 187.48C867.01 186.75 868.16 186.18 868.01 184.52V184.5ZM918.37 151.44C904.64 163.73 891.68 175.39 878.62 186.93C876.6 188.72 877.61 189.99 878.55 191.6C882.65 198.65 886.69 205.73 890.78 212.78C894.01 218.35 896.6 218.38 900.26 212.86C900.89 211.91 901.27 210.76 901.62 209.66C905.71 196.65 909.9 183.66 913.78 170.59C915.54 164.64 917.53 158.7 918.38 151.44H918.37ZM900.86 118.89C889.37 116.87 878.96 115.03 868.54 113.21C867.38 113.01 866.76 113.88 866.09 114.63C860.21 121.21 854.35 127.81 848.43 134.35C847.16 135.75 846.72 136.92 847.84 138.72C850.91 143.67 853.9 148.67 856.67 153.79C857.98 156.22 859.01 155.9 860.72 154.32C864.27 151.05 867.96 147.93 871.59 144.73C881.05 136.39 890.5 128.04 900.87 118.89H900.86ZM842.17 141.14C841.65 141.73 840.91 142.63 840.11 143.47C831.45 152.7 822.76 161.9 814.12 171.14C805.22 180.65 805.3 180.62 811.96 191.96C813.28 194.2 814.15 194.85 816.33 192.93C828.21 182.49 840.17 172.14 852.15 161.81C853.62 160.55 854.17 159.56 853.03 157.66C850.12 152.81 847.48 147.81 844.67 142.9C844.22 142.11 844.02 140.9 842.17 141.14ZM861.59 312.78C860.6 312.92 860.21 312.86 860.03 313.02C846.53 325.38 833.04 337.76 819.54 350.12C818.45 351.12 817.97 352.02 818.71 353.56C823.28 363.05 827.75 372.59 832.83 383.32C842.52 358.98 851.33 335.78 861.59 312.77V312.78ZM769.07 234.77C782.25 223.04 795.08 211.43 808.06 200C809.07 199.11 810.1 198.37 809.19 196.7C807.21 193.05 805.38 189.32 803.53 185.6C802.84 184.22 802.14 183.96 800.97 185.14C796.18 189.99 790.17 194.1 786.79 199.78C780.12 210.99 774.89 223.06 769.07 234.78V234.77ZM830.84 119.9C820.39 136.52 810.8 153.18 801.76 170.17C801.07 171.46 800.62 172.86 802.06 173.67C803.73 174.61 804.2 172.67 804.99 171.84C813.23 163.17 821.47 154.49 829.59 145.71C833.04 141.98 839.3 138.86 839.19 134.35C839.08 129.71 834.42 125.17 831.74 120.6C831.67 120.47 831.49 120.4 830.84 119.91V119.9ZM789.95 375.17C801.83 379.13 813.12 382 825.57 384.89C820.46 376.22 815.89 368.39 812.04 360.19C811.22 358.45 810.36 358.49 809.06 359.69C803.25 365.05 797.29 370.25 789.95 375.17ZM741.22 293.62C741.45 293.79 741.68 293.97 741.91 294.14C747.87 288.7 753.78 283.22 759.78 277.83C770.48 268.23 770.45 268.29 762.81 255.96C761.3 253.52 760.22 253.64 759.11 255.96C753.11 268.5 747.17 281.07 741.22 293.62ZM860.86 111.93C855.48 111.19 848.76 110.25 842.03 109.34C839.33 108.97 837 108.83 835.31 111.94C833.74 114.83 833.59 116.88 835.73 119.53C838.11 122.49 839.99 125.86 841.99 129.12C842.95 130.69 843.81 131.41 845.3 129.7C850.53 123.7 855.8 117.72 860.87 111.94L860.86 111.93Z" fill="black"/>
<path d="M401.179 350.51C400.939 348.55 401.889 347.34 403.709 348.23C406.839 349.76 407.759 347.69 409.059 345.67C415.549 335.58 418.699 324.2 421.919 312.83C422.959 309.16 424.119 305.5 425.489 301.94C426.569 299.14 428.549 296.97 431.909 297.53C435.229 298.08 436.409 300.77 436.739 303.73C437.019 306.2 436.899 308.72 436.959 311.21C437.119 318.19 436.959 325.16 437.719 332.16C438.879 342.72 443.869 349.77 454.069 353.17C457.569 354.34 462.289 354.85 462.589 359.65C462.899 364.62 458.209 365.81 454.759 367.63C443.449 373.6 435.909 383.23 429.099 393.64C427.099 396.7 425.849 401.53 421.079 400.67C415.849 399.73 416.729 394.5 416.239 390.81C414.879 380.59 411.889 371.04 406.309 362.32C403.979 358.68 401.709 354.96 401.179 350.51ZM448.139 360.14C433.269 354.3 429.649 342.23 427.829 327.51C423.679 337.28 419.189 345 412.789 351.41C411.139 353.06 412.369 353.99 413.299 355.15C418.079 361.11 420.919 367.96 422.559 375.35C423.249 378.44 423.809 381.56 424.629 385.69C431.079 375.37 437.799 366.76 448.139 360.15V360.14Z" fill="black"/>
<path d="M981.14 674.119C981.17 677.559 978.99 679.639 976.67 681.579C971.56 685.849 966.27 689.919 961.3 694.349C956.43 698.679 952.31 703.709 948.89 709.289C947.42 711.679 946.02 714.599 942.47 713.699C939.35 712.899 938.85 710.109 938.7 707.339C938.17 697.759 934.32 688.939 932.37 679.689C932.24 679.049 932.15 678.019 931.78 677.879C925.43 675.519 928.9 671.569 930.31 668.209C936.48 653.469 941.61 638.349 946.82 623.259C947.25 621.999 947.65 620.719 948.21 619.519C949.42 616.909 951.33 614.959 954.37 615.379C957.61 615.829 959.04 618.119 959.32 621.349C960.07 630.139 959.45 638.989 960.81 647.769C962.27 657.169 966.1 664.499 975.67 667.789C978.66 668.819 980.92 670.669 981.15 674.129L981.14 674.119ZM947.66 695.129C953.85 687.259 960.85 681.249 968.76 674.989C956.48 669.849 952.96 659.339 950.57 647.019C946.13 656.989 942.73 666.059 936.79 673.769C935.88 674.959 935.93 675.779 937.14 676.639C943.15 680.949 945.76 687.309 947.66 695.129Z" fill="black"/>
<path d="M188.189 1065.18C178.799 1062.5 171.309 1058.35 165.789 1051.08C164.449 1049.31 163.519 1046.98 165.559 1045.21C167.709 1043.34 169.549 1045.05 171.179 1046.55C175.599 1050.59 180.069 1054.58 184.389 1058.72C185.909 1060.17 187.469 1061.74 188.189 1065.18Z" fill="black"/>
</svg>
