<svg width="274" height="154" viewBox="0 0 274 154" fill="none" xmlns="http://www.w3.org/2000/svg">
<g clip-path="url(#clip0_277_552)">
<rect width="274" height="154" fill="#354E66"/>
<g style="mix-blend-mode:difference" opacity="0.5">
<path fill-rule="evenodd" clip-rule="evenodd" d="M8.19017 10.7252C9.6251 7.65913 11.737 5.65578 13.8442 4.56337C15.9039 3.49553 18.1054 3.23636 19.6268 3.9458C20.6403 4.41841 21.321 5.1497 21.6479 6.10417C21.9595 7.01389 21.914 8.02317 21.7111 9.02297C21.3155 10.9727 20.2186 13.3248 19.1016 15.7199L19.0111 15.914C17.8943 18.3091 16.7976 20.6614 15.5583 22.2177C14.9228 23.0158 14.1789 23.6994 13.2817 24.0455C12.3405 24.4086 11.3427 24.3572 10.3292 23.8846C8.80779 23.1751 7.59125 21.3221 7.08528 19.0579C6.56759 16.7411 6.74486 13.835 8.17194 10.7643C8.17772 10.7512 8.1838 10.7382 8.19017 10.7252ZM11.1637 11.447C10.8325 11.2925 10.5423 11.1191 10.3123 10.9502C10.8354 9.96479 11.4349 9.13088 12.0717 8.43529C12.8496 9.05291 13.7889 9.35579 14.8526 9.32671C15.4047 9.31162 15.84 8.85183 15.8249 8.29976C15.8099 7.74768 15.3501 7.31236 14.798 7.32745C14.3409 7.33995 13.9476 7.25375 13.6015 7.0611C13.9893 6.77846 14.3796 6.5386 14.7647 6.33894C16.5247 5.42647 18.0372 5.41131 18.7816 5.75842C19.3541 6.0254 19.6228 6.36373 19.7558 6.75218C19.9042 7.18539 19.9201 7.79232 19.7511 8.62525C19.4083 10.3147 18.4165 12.4568 17.2438 14.9717C16.071 17.4867 15.0676 19.6233 13.9937 20.9719C13.4643 21.6368 12.9891 22.0147 12.5619 22.1795C12.1788 22.3273 11.747 22.3389 11.1744 22.072C10.4301 21.7249 9.46949 20.5565 9.03715 18.6217C9.00082 18.4591 8.96855 18.2922 8.94072 18.1211C9.45794 18.3157 10.0221 18.4063 10.6265 18.3898C11.1785 18.3747 11.6139 17.9149 11.5988 17.3628C11.5837 16.8108 11.1239 16.3754 10.5718 16.3905C9.86963 16.4097 9.3181 16.1961 8.85681 15.7214C8.93375 14.8085 9.13441 13.8312 9.49405 12.811C9.76237 12.9804 10.0427 13.131 10.3185 13.2596C11.0673 13.6088 11.9622 13.8795 12.7396 13.8583C13.2916 13.8432 13.7269 13.3834 13.7119 12.8313C13.6968 12.2792 13.237 11.8439 12.6849 11.859C12.3446 11.8683 11.7744 11.7317 11.1637 11.447Z" fill="white"/>
<path fill-rule="evenodd" clip-rule="evenodd" d="M40.6766 -3.64346C40.5631 -4.56698 41.1021 -5.4466 41.9764 -5.76484L49.881 -8.64187C50.7554 -8.96011 51.7336 -8.63272 52.2403 -7.85232L54.7168 -4.03815C57.1109 -0.350791 55.7428 4.51427 51.974 6.48844C51.9828 6.50855 51.9911 6.52908 51.9987 6.55002L53.0248 9.36909L55.8439 8.34303C56.3628 8.15414 56.9367 8.42173 57.1256 8.94071C57.3145 9.45968 57.0469 10.0335 56.5279 10.2224L52.7691 11.5905L49.0104 12.9586C48.4914 13.1475 47.9175 12.8799 47.7286 12.3609C47.5397 11.8419 47.8073 11.2681 48.3263 11.0792L51.1454 10.0531L50.1193 7.23406C50.1117 7.21312 50.1048 7.19209 50.0987 7.171C45.9427 8.08122 41.7674 5.23377 41.2312 0.870188L40.6766 -3.64346ZM42.6618 -3.88595L43.2163 0.626263C43.637 4.05009 47.1334 6.19247 50.375 5.01265C53.6165 3.83283 54.9178 -0.0557983 53.0393 -2.94903L50.5637 -6.76199L42.6618 -3.88595Z" fill="white"/>
<path fill-rule="evenodd" clip-rule="evenodd" d="M84.581 -21.2716C85.7012 -21.6793 86.927 -21.0229 87.2085 -19.8646L91.0103 -4.22144C91.2509 -3.23116 90.7085 -2.21829 89.7509 -1.86974L82.0361 0.938219C81.0784 1.28677 80.0119 0.859526 79.5597 -0.0537665L72.4168 -14.4808C71.8879 -15.5491 72.405 -16.8399 73.5251 -17.2476L84.581 -21.2716ZM85.2651 -19.3922L74.2092 -15.3682L75.916 -11.9208C76.1764 -12.0767 76.5019 -12.2501 76.8913 -12.4183C77.9939 -12.8947 79.6006 -13.3261 81.6741 -13.2103C83.4025 -13.1137 84.7004 -13.4734 85.552 -13.8413C85.9739 -14.0236 86.2883 -14.2089 86.492 -14.3439L85.2651 -19.3922ZM86.9855 -12.3134C86.7959 -12.2122 86.5824 -12.1078 86.3452 -12.0053C85.2426 -11.5289 83.6359 -11.0975 81.5625 -11.2134C79.834 -11.31 78.5361 -10.9503 77.6846 -10.5824C77.3038 -10.4179 77.0106 -10.2509 76.8073 -10.1206L81.352 -0.941165L89.0668 -3.74912L86.9855 -12.3134ZM81.8756 -8.58097C82.0645 -8.06199 81.7969 -7.48815 81.2779 -7.29926C80.759 -7.11037 80.1851 -7.37795 79.9962 -7.89693C79.8073 -8.41591 80.0749 -8.98975 80.5939 -9.17865C81.1129 -9.36754 81.6867 -9.09995 81.8756 -8.58097ZM85.1231 -5.50624C85.6421 -5.69514 85.9096 -6.26898 85.7207 -6.78796C85.5319 -7.30693 84.958 -7.57452 84.439 -7.38563C83.9201 -7.19674 83.6525 -6.62289 83.8414 -6.10392C84.0303 -5.58494 84.6041 -5.31735 85.1231 -5.50624Z" fill="white"/>
<path fill-rule="evenodd" clip-rule="evenodd" d="M-5.03114 53.9115C-3.91101 53.5038 -2.68518 54.1602 -2.40367 55.3186L1.39809 70.9617C1.63875 71.9519 1.09634 72.9648 0.138697 73.3134L-7.5761 76.1213C-8.53374 76.4699 -9.60032 76.0426 -10.0525 75.1293L-17.1954 60.7023C-17.7243 59.634 -17.2072 58.3432 -16.0871 57.9355L-5.03114 53.9115ZM-4.3471 55.7909L-15.403 59.8149L-13.6962 63.2623C-13.4358 63.1064 -13.1103 62.933 -12.7208 62.7648C-11.6183 62.2884 -10.0116 61.857 -7.93812 61.9729C-6.20964 62.0694 -4.91176 61.7097 -4.06023 61.3418C-3.63833 61.1595 -3.32389 60.9743 -3.12021 60.8392L-4.3471 55.7909ZM-2.62672 62.8697C-2.81625 62.9709 -3.02976 63.0753 -3.26699 63.1778C-4.36954 63.6542 -5.97624 64.0856 -8.04971 63.9697C-9.77819 63.8731 -11.0761 64.2328 -11.9276 64.6007C-12.3084 64.7652 -12.6016 64.9322 -12.8049 65.0625L-8.26014 74.2419L-0.545344 71.434L-2.62672 62.8697ZM-7.73657 66.6021C-7.54768 67.1211 -7.81527 67.695 -8.33425 67.8838C-8.85322 68.0727 -9.42707 67.8052 -9.61596 67.2862C-9.80485 66.7672 -9.53727 66.1934 -9.01829 66.0045C-8.49931 65.8156 -7.92547 66.0832 -7.73657 66.6021ZM-4.48911 69.6769C-3.97013 69.488 -3.70254 68.9141 -3.89144 68.3951C-4.08033 67.8762 -4.65417 67.6086 -5.17315 67.7975C-5.69213 67.9864 -5.95971 68.5602 -5.77082 69.0792C-5.58193 69.5982 -5.00809 69.8658 -4.48911 69.6769Z" fill="white"/>
<path fill-rule="evenodd" clip-rule="evenodd" d="M33.0254 41.6042C32.6018 41.4067 31.9222 41.307 31.203 41.3042C30.4406 41.3012 29.5018 41.4061 28.5075 41.7153C26.7961 42.2475 24.9348 43.383 23.555 45.5604C23.5292 45.5826 23.5044 45.6063 23.4805 45.6315L21.3063 47.9278C20.9266 48.3288 20.9439 48.9617 21.3449 49.3415C21.5557 49.541 21.8306 49.6309 22.099 49.6131C21.9318 51.0145 22.0412 52.4934 22.4083 53.9067C22.6056 54.6666 22.9477 55.7641 23.3027 56.903C23.4524 57.3836 23.6047 57.872 23.7491 58.3451C23.186 58.6021 22.6703 58.853 22.2584 59.0833C21.8241 59.3261 21.3398 59.6059 21.079 60.0481C20.9679 60.2365 20.8181 60.6073 20.9755 61.0398C21.2913 61.9075 22.3657 62.4249 23.1467 62.7892C23.9278 63.1534 25.0147 63.6437 25.8825 63.3279C26.315 63.1705 26.5027 62.8174 26.5756 62.6112C26.7467 62.1272 26.6498 61.5764 26.5566 61.0876C26.4683 60.624 26.3289 60.0677 26.1639 59.4711C26.6192 59.2776 27.0909 59.0804 27.5555 58.8862C28.6561 58.426 29.7168 57.9826 30.4257 57.6453C31.7443 57.018 32.9476 56.1513 33.9137 55.1223C34.0726 55.3394 34.3181 55.4922 34.6065 55.5254C35.1552 55.5885 35.6511 55.195 35.7143 54.6463L36.0758 51.5047C36.0798 51.4702 36.082 51.4358 36.0824 51.4017C36.8633 48.9452 36.5368 46.7896 35.8444 45.1366C35.4421 44.1761 34.919 43.3896 34.4266 42.8074C33.9622 42.2583 33.4491 41.8018 33.0254 41.6042ZM26.8704 57.0046C26.454 57.1784 26.0245 57.3578 25.5946 57.5398C25.4576 57.0934 25.3189 56.6491 25.1845 56.2184C24.8453 55.1318 24.5331 54.1317 24.3441 53.404C23.8117 51.3542 23.9493 49.237 24.6903 47.6479C25.8255 45.2134 27.5637 44.1033 29.1014 43.6251C29.8815 43.3825 30.6153 43.3019 31.1952 43.3042C31.5164 43.3055 31.8696 43.3127 32.178 43.4162L32.1801 43.417L32.1821 43.4181C32.4596 43.5878 32.6922 43.8537 32.8996 44.099C33.2741 44.5417 33.684 45.1557 33.9997 45.9092C34.6218 47.3945 34.8886 49.4396 33.7534 51.8741C33.0124 53.4632 31.4789 54.9295 29.5665 55.8393C28.8876 56.1622 27.9208 56.5659 26.8704 57.0046ZM23.463 60.7052C23.7092 60.5756 23.9959 60.4355 24.3133 60.2874C24.4039 60.6258 24.4808 60.9354 24.5399 61.2074C24.3648 61.1418 24.179 61.0638 23.992 60.9765C23.8049 60.8893 23.6257 60.7972 23.463 60.7052ZM29.6445 48.8547C30.3953 49.2049 31.2878 48.88 31.6379 48.1292C31.988 47.3784 31.6632 46.4859 30.9124 46.1358C30.1616 45.7857 29.2691 46.1105 28.919 46.8614C28.5689 47.6122 28.8937 48.5046 29.6445 48.8547Z" fill="white"/>
<path fill-rule="evenodd" clip-rule="evenodd" d="M57.7666 35.2482C59.2015 32.1821 61.3135 30.1787 63.4206 29.0863C65.4803 28.0185 67.6818 27.7593 69.2032 28.4688C70.2167 28.9414 70.8974 29.6727 71.2243 30.6271C71.5359 31.5368 71.4904 32.5461 71.2875 33.5459C70.8919 35.4956 69.795 37.8478 68.678 40.2429L68.5876 40.4369C67.4708 42.8321 66.374 45.1844 65.1347 46.7407C64.4992 47.5387 63.7553 48.2223 62.8582 48.5684C61.9169 48.9315 60.9191 48.8801 59.9056 48.4075C58.3842 47.6981 57.1677 45.8451 56.6617 43.5808C56.144 41.2641 56.3213 38.3579 57.7484 35.2873C57.7541 35.2741 57.7602 35.2611 57.7666 35.2482ZM60.7402 35.9699C60.4089 35.8154 60.1187 35.6421 59.8887 35.4732C60.4119 34.4877 61.0113 33.6538 61.6481 32.9582C62.426 33.5759 63.3653 33.8787 64.4291 33.8497C64.9811 33.8346 65.4165 33.3748 65.4014 32.8227C65.3863 32.2706 64.9265 31.8353 64.3744 31.8504C63.9173 31.8629 63.524 31.7767 63.1779 31.584C63.5658 31.3014 63.956 31.0615 64.3411 30.8619C66.1012 29.9494 67.6136 29.9343 68.358 30.2814C68.9305 30.5483 69.1992 30.8867 69.3322 31.2751C69.4806 31.7083 69.4965 32.3153 69.3275 33.1482C68.9847 34.8376 67.9929 36.9797 66.8202 39.4947C65.6474 42.0097 64.644 44.1463 63.5701 45.4948C63.0407 46.1597 62.5656 46.5376 62.1383 46.7024C61.7553 46.8502 61.3234 46.8619 60.7508 46.5949C60.0065 46.2478 59.0459 45.0795 58.6136 43.1447C58.5772 42.9821 58.545 42.8151 58.5171 42.644C59.0344 42.8386 59.5985 42.9293 60.2029 42.9127C60.755 42.8976 61.1903 42.4379 61.1752 41.8858C61.1601 41.3337 60.7003 40.8984 60.1482 40.9135C59.446 40.9327 58.8945 40.719 58.4332 40.2443C58.5102 39.3314 58.7108 38.3541 59.0705 37.3339C59.3388 37.5033 59.6191 37.6539 59.8949 37.7825C60.6438 38.1317 61.5387 38.4025 62.316 38.3812C62.868 38.3661 63.3034 37.9063 63.2883 37.3543C63.2732 36.8022 62.8134 36.3669 62.2613 36.382C61.921 36.3913 61.3508 36.2547 60.7402 35.9699Z" fill="white"/>
<path fill-rule="evenodd" clip-rule="evenodd" d="M90.2529 20.8792C90.1394 19.9557 90.6784 19.0761 91.5527 18.7579L99.4573 15.8808C100.332 15.5626 101.31 15.89 101.817 16.6704L104.293 20.4846C106.687 24.1719 105.319 29.037 101.55 31.0111C101.559 31.0313 101.567 31.0518 101.575 31.0727L102.601 33.8918L105.42 32.8657C105.939 32.6768 106.513 32.9444 106.702 33.4634C106.891 33.9824 106.623 34.5562 106.104 34.7451L102.345 36.1132L98.5866 37.4813C98.0677 37.6702 97.4938 37.4026 97.3049 36.8836C97.116 36.3646 97.3836 35.7908 97.9026 35.6019L100.722 34.5758L99.6956 31.7568C99.688 31.7358 99.6811 31.7148 99.675 31.6937C95.519 32.6039 91.3437 29.7565 90.8075 25.3929L90.2529 20.8792ZM92.2381 20.6368L92.7926 25.149C93.2133 28.5728 96.7097 30.7152 99.9513 29.5354C103.193 28.3555 104.494 24.4669 102.616 21.5737L100.14 17.7607L92.2381 20.6368Z" fill="white"/>
<path fill-rule="evenodd" clip-rule="evenodd" d="M134.157 3.25108C135.278 2.84338 136.503 3.49984 136.785 4.65815L140.587 20.3013C140.827 21.2915 140.285 22.3044 139.327 22.653L131.612 25.4609C130.655 25.8095 129.588 25.3822 129.136 24.4689L121.993 10.0419C121.464 8.97363 121.981 7.6828 123.102 7.27511L134.157 3.25108ZM134.841 5.13046L123.786 9.15449L125.492 12.6019C125.753 12.446 126.078 12.2726 126.468 12.1044C127.57 11.628 129.177 11.1966 131.25 11.3124C132.979 11.409 134.277 11.0493 135.128 10.6814C135.55 10.4991 135.865 10.3139 136.068 10.1788L134.841 5.13046ZM136.562 12.2093C136.372 12.3105 136.159 12.4149 135.922 12.5174C134.819 12.9938 133.212 13.4252 131.139 13.3093C129.41 13.2127 128.113 13.5724 127.261 13.9403C126.88 14.1048 126.587 14.2718 126.384 14.4021L130.928 23.5815L138.643 20.7736L136.562 12.2093ZM131.452 15.9417C131.641 16.4607 131.373 17.0346 130.854 17.2234C130.335 17.4123 129.762 17.1448 129.573 16.6258C129.384 16.1068 129.651 15.533 130.17 15.3441C130.689 15.1552 131.263 15.4228 131.452 15.9417ZM134.699 19.0165C135.218 18.8276 135.486 18.2537 135.297 17.7347C135.108 17.2158 134.534 16.9482 134.015 17.1371C133.496 17.326 133.229 17.8998 133.418 18.4188C133.607 18.9378 134.181 19.2054 134.699 19.0165Z" fill="white"/>
<path fill-rule="evenodd" clip-rule="evenodd" d="M172.214 -9.05619C171.79 -9.25374 171.111 -9.35336 170.392 -9.35619C169.629 -9.35918 168.69 -9.25428 167.696 -8.94508C165.985 -8.41289 164.123 -7.27739 162.744 -5.10002C162.718 -5.07785 162.693 -5.05415 162.669 -5.02893L160.495 -2.73263C160.115 -2.33158 160.133 -1.69866 160.534 -1.31894C160.744 -1.11938 161.019 -1.02947 161.288 -1.04731C161.12 0.354122 161.23 1.83301 161.597 3.24634C161.794 4.0062 162.136 5.10367 162.491 6.24263C162.641 6.72321 162.793 7.21161 162.938 7.6847C162.375 7.94174 161.859 8.19256 161.447 8.42286C161.013 8.66569 160.528 8.94548 160.268 9.38769C160.156 9.57608 160.007 9.94686 160.164 10.3794C160.48 11.2471 161.554 11.7645 162.335 12.1288C163.116 12.493 164.203 12.9833 165.071 12.6675C165.504 12.5101 165.691 12.157 165.764 11.9508C165.935 11.4668 165.838 10.916 165.745 10.4272C165.657 9.96359 165.517 9.40728 165.352 8.8107C165.808 8.61723 166.28 8.42002 166.744 8.2258C167.845 7.76564 168.905 7.32215 169.614 6.98492C170.933 6.35763 172.136 5.49086 173.102 4.46189C173.261 4.67904 173.507 4.83181 173.795 4.865C174.344 4.92814 174.84 4.53455 174.903 3.98589L175.264 0.844345C175.268 0.809757 175.271 0.775389 175.271 0.741316C176.052 -1.71515 175.725 -3.87077 175.033 -5.52384C174.631 -6.48429 174.108 -7.27084 173.615 -7.85299C173.151 -8.40208 172.638 -8.85865 172.214 -9.05619ZM166.059 6.34417C165.643 6.51802 165.213 6.69737 164.783 6.87935C164.646 6.43303 164.508 5.98872 164.373 5.55802C164.034 4.47142 163.722 3.47127 163.533 2.74358C163 0.693839 163.138 -1.42339 163.879 -3.01251C165.014 -5.44696 166.752 -6.55712 168.29 -7.03528C169.07 -7.27787 169.804 -7.35848 170.384 -7.3562C170.705 -7.35494 171.058 -7.34775 171.367 -7.24416L171.369 -7.24344L171.371 -7.24225C171.648 -7.07259 171.881 -6.80669 172.088 -6.56141C172.463 -6.11869 172.873 -5.50471 173.188 -4.75118C173.81 -3.26587 174.077 -1.22078 172.942 1.21367C172.201 2.80279 170.668 4.26912 168.755 5.17886C168.076 5.50184 167.109 5.90554 166.059 6.34417ZM162.652 10.0448C162.898 9.91523 163.184 9.7751 163.502 9.627C163.593 9.96538 163.669 10.275 163.728 10.547C163.553 10.4814 163.368 10.4034 163.181 10.3161C162.994 10.2289 162.814 10.1367 162.652 10.0448ZM168.833 -1.80565C169.584 -1.45554 170.476 -1.78038 170.827 -2.53119C171.177 -3.282 170.852 -4.17447 170.101 -4.52458C169.35 -4.87468 168.458 -4.54985 168.108 -3.79904C167.757 -3.04823 168.082 -2.15576 168.833 -1.80565Z" fill="white"/>
<path fill-rule="evenodd" clip-rule="evenodd" d="M1.78938 95.6441C1.6759 94.7206 2.21488 93.841 3.08922 93.5228L10.9938 90.6457C11.8682 90.3275 12.8464 90.6549 13.3531 91.4353L15.8296 95.2494C18.2237 98.9368 16.8556 103.802 13.0868 105.776C13.0956 105.796 13.1039 105.817 13.1115 105.838L14.1376 108.657L16.9566 107.631C17.4756 107.442 18.0495 107.709 18.2384 108.228C18.4272 108.747 18.1597 109.321 17.6407 109.51L13.8819 110.878L10.1231 112.246C9.60417 112.435 9.03032 112.167 8.84143 111.649C8.65254 111.13 8.92013 110.556 9.4391 110.367L12.2582 109.341L11.2321 106.522C11.2245 106.501 11.2176 106.48 11.2115 106.459C7.05545 107.369 2.88021 104.521 2.34402 100.158L1.78938 95.6441ZM3.77463 95.4016L4.32909 99.9139C4.74981 103.338 8.24624 105.48 11.4878 104.3C14.7293 103.12 16.0306 99.2318 14.1521 96.3386L11.6765 92.5256L3.77463 95.4016Z" fill="white"/>
<path fill-rule="evenodd" clip-rule="evenodd" d="M45.6938 78.016C46.814 77.6083 48.0398 78.2647 48.3213 79.423L52.1231 95.0662C52.3637 96.0564 51.8213 97.0693 50.8637 97.4179L43.1489 100.226C42.1912 100.574 41.1247 100.147 40.6725 99.2338L33.5296 84.8068C33.0007 83.7385 33.5178 82.4477 34.6379 82.04L45.6938 78.016ZM46.3779 79.8954L35.3219 83.9194L37.0288 87.3668C37.2892 87.2109 37.6147 87.0375 38.0041 86.8693C39.1067 86.3929 40.7134 85.9615 42.7869 86.0773C44.5153 86.1739 45.8132 85.8142 46.6647 85.4463C47.0866 85.264 47.4011 85.0787 47.6048 84.9437L46.3779 79.8954ZM48.0983 86.9742C47.9087 87.0754 47.6952 87.1798 47.458 87.2823C46.3554 87.7587 44.7487 88.1901 42.6753 88.0742C40.9468 87.9776 39.6489 88.3373 38.7974 88.7052C38.4166 88.8697 38.1233 89.0367 37.9201 89.167L42.4648 98.3464L50.1796 95.5385L48.0983 86.9742ZM42.9884 90.7066C43.1773 91.2256 42.9097 91.7994 42.3907 91.9883C41.8718 92.1772 41.2979 91.9096 41.109 91.3907C40.9201 90.8717 41.1877 90.2978 41.7067 90.109C42.2257 89.9201 42.7995 90.1876 42.9884 90.7066ZM46.2359 93.7814C46.7548 93.5925 47.0224 93.0186 46.8335 92.4996C46.6446 91.9807 46.0708 91.7131 45.5518 91.902C45.0328 92.0909 44.7653 92.6647 44.9542 93.1837C45.143 93.7027 45.7169 93.9702 46.2359 93.7814Z" fill="white"/>
<path fill-rule="evenodd" clip-rule="evenodd" d="M83.7504 65.7089C83.3268 65.5114 82.6472 65.4118 81.928 65.409C81.1656 65.406 80.2268 65.5109 79.2325 65.8201C77.521 66.3523 75.6598 67.4877 74.28 69.6651C74.2542 69.6873 74.2293 69.711 74.2055 69.7362L72.0313 72.0325C71.6516 72.4336 71.6689 73.0665 72.0699 73.4462C72.2807 73.6458 72.5555 73.7357 72.824 73.7178C72.6567 75.1193 72.7662 76.5982 73.1333 78.0115C73.3306 78.7713 73.6727 79.8688 74.0276 81.0078C74.1774 81.4883 74.3296 81.9767 74.4741 82.4498C73.911 82.7069 73.3953 82.9577 72.9834 83.188C72.549 83.4308 72.0648 83.7106 71.804 84.1528C71.6929 84.3412 71.5431 84.712 71.7005 85.1445C72.0163 86.0122 73.0907 86.5297 73.8717 86.8939C74.6527 87.2581 75.7397 87.7485 76.6074 87.4326C77.0399 87.2752 77.2277 86.9221 77.3006 86.7159C77.4717 86.2319 77.3748 85.6811 77.2816 85.1923C77.1933 84.7287 77.0539 84.1724 76.8888 83.5758C77.3442 83.3824 77.8159 83.1852 78.2804 82.9909C79.3811 82.5308 80.4418 82.0873 81.1507 81.7501C82.4693 81.1228 83.6726 80.256 84.6386 79.227C84.7975 79.4442 85.0431 79.5969 85.3315 79.6301C85.8801 79.6933 86.3761 79.2997 86.4392 78.751L86.8008 75.6095C86.8048 75.5749 86.8069 75.5405 86.8074 75.5065C87.5883 73.05 87.2617 70.8944 86.5694 69.2413C86.1671 68.2808 85.644 67.4943 85.1516 66.9121C84.6872 66.3631 84.174 65.9065 83.7504 65.7089ZM77.5953 81.1093C77.179 81.2832 76.7495 81.4625 76.3195 81.6445C76.1826 81.1982 76.0439 80.7539 75.9094 80.3232C75.5703 79.2366 75.258 78.2364 75.0691 77.5087C74.5367 75.459 74.6743 73.3417 75.4153 71.7526C76.5505 69.3182 78.2886 68.208 79.8264 67.7299C80.6065 67.4873 81.3403 67.4067 81.9202 67.4089C82.2414 67.4102 82.5946 67.4174 82.9029 67.521L82.9051 67.5217L82.907 67.5229C83.1846 67.6925 83.4171 67.9585 83.6246 68.2037C83.999 68.6464 84.409 69.2604 84.7246 70.014C85.3468 71.4993 85.6136 73.5444 84.4784 75.9788C83.7374 77.5679 82.2039 79.0343 80.2915 79.944C79.6126 80.267 78.6458 80.6707 77.5953 81.1093ZM74.1879 84.8099C74.4342 84.6804 74.7208 84.5402 75.0383 84.3921C75.1289 84.7305 75.2058 85.0401 75.2648 85.3121C75.0898 85.2465 74.904 85.1685 74.7169 85.0813C74.5299 84.9941 74.3507 84.9019 74.1879 84.8099ZM80.3695 72.9595C81.1203 73.3096 82.0128 72.9848 82.3629 72.234C82.713 71.4831 82.3882 70.5907 81.6374 70.2406C80.8866 69.8905 79.9941 70.2153 79.644 70.9661C79.2939 71.7169 79.6187 72.6094 80.3695 72.9595Z" fill="white"/>
<path fill-rule="evenodd" clip-rule="evenodd" d="M108.492 59.3527C109.926 56.2866 112.038 54.2832 114.146 53.1908C116.205 52.123 118.407 51.8638 119.928 52.5732C120.942 53.0458 121.622 53.7771 121.949 54.7316C122.261 55.6413 122.215 56.6506 122.013 57.6504C121.617 59.6001 120.52 61.9523 119.403 64.3474L119.313 64.5414C118.196 66.9366 117.099 69.2889 115.86 70.8452C115.224 71.6432 114.48 72.3268 113.583 72.6729C112.642 73.036 111.644 72.9846 110.631 72.512C109.109 71.8026 107.893 69.9496 107.387 67.6853C106.869 65.3686 107.046 62.4624 108.473 59.3918C108.479 59.3786 108.485 59.3656 108.492 59.3527ZM111.465 60.0744C111.134 59.9199 110.844 59.7465 110.614 59.5777C111.137 58.5922 111.736 57.7583 112.373 57.0627C113.151 57.6803 114.09 57.9832 115.154 57.9541C115.706 57.9391 116.141 57.4793 116.126 56.9272C116.111 56.3751 115.651 55.9398 115.099 55.9549C114.642 55.9674 114.249 55.8812 113.903 55.6885C114.291 55.4059 114.681 55.166 115.066 54.9664C116.826 54.0539 118.339 54.0388 119.083 54.3859C119.655 54.6528 119.924 54.9912 120.057 55.3796C120.206 55.8128 120.221 56.4198 120.052 57.2527C119.71 58.9421 118.718 61.0842 117.545 63.5992C116.372 66.1141 115.369 68.2508 114.295 69.5993C113.766 70.2642 113.291 70.6421 112.863 70.8069C112.48 70.9547 112.048 70.9664 111.476 70.6994C110.731 70.3523 109.771 69.184 109.339 67.2492C109.302 67.0866 109.27 66.9196 109.242 66.7485C109.759 66.9431 110.324 67.0337 110.928 67.0172C111.48 67.0021 111.915 66.5424 111.9 65.9903C111.885 65.4382 111.425 65.0029 110.873 65.018C110.171 65.0372 109.619 64.8235 109.158 64.3488C109.235 63.4359 109.436 62.4586 109.795 61.4384C110.064 61.6078 110.344 61.7584 110.62 61.887C111.369 62.2362 112.264 62.5069 113.041 62.4857C113.593 62.4706 114.028 62.0108 114.013 61.4587C113.998 60.9067 113.538 60.4714 112.986 60.4864C112.646 60.4957 112.076 60.3591 111.465 60.0744Z" fill="white"/>
<path fill-rule="evenodd" clip-rule="evenodd" d="M140.978 44.9837C140.864 44.0602 141.403 43.1806 142.278 42.8624L150.182 39.9853C151.057 39.6671 152.035 39.9945 152.542 40.7749L155.018 44.589C157.412 48.2764 156.044 53.1415 152.275 55.1156C152.284 55.1357 152.292 55.1563 152.3 55.1772L153.326 57.9963L156.145 56.9702C156.664 56.7813 157.238 57.0489 157.427 57.5679C157.616 58.0869 157.348 58.6607 156.829 58.8496L153.071 60.2177L149.312 61.5858C148.793 61.7747 148.219 61.5071 148.03 60.9881C147.841 60.4691 148.109 59.8953 148.628 59.7064L151.447 58.6803L150.421 55.8613C150.413 55.8403 150.406 55.8193 150.4 55.7982C146.244 56.7084 142.069 53.861 141.533 49.4974L140.978 44.9837ZM142.963 44.7412L143.518 49.2535C143.938 52.6773 147.435 54.8197 150.676 53.6398C153.918 52.46 155.219 48.5714 153.341 45.6782L150.865 41.8652L142.963 44.7412Z" fill="white"/>
<path fill-rule="evenodd" clip-rule="evenodd" d="M184.882 27.3556C186.003 26.9479 187.228 27.6043 187.51 28.7626L191.312 44.4058C191.552 45.396 191.01 46.4089 190.052 46.7575L182.337 49.5654C181.38 49.914 180.313 49.4867 179.861 48.5734L172.718 34.1464C172.189 33.0781 172.706 31.7873 173.827 31.3796L184.882 27.3556ZM185.566 29.235L174.511 33.259L176.217 36.7064C176.478 36.5505 176.803 36.3771 177.193 36.2089C178.295 35.7325 179.902 35.3011 181.975 35.4169C183.704 35.5135 185.002 35.1538 185.853 34.7859C186.275 34.6036 186.59 34.4183 186.793 34.2833L185.566 29.235ZM187.287 36.3138C187.097 36.415 186.884 36.5194 186.647 36.6219C185.544 37.0983 183.937 37.5297 181.864 37.4138C180.135 37.3172 178.837 37.6769 177.986 38.0448C177.605 38.2093 177.312 38.3763 177.109 38.5066L181.653 47.686L189.368 44.8781L187.287 36.3138ZM182.177 40.0462C182.366 40.5652 182.098 41.139 181.579 41.3279C181.06 41.5168 180.487 41.2492 180.298 40.7303C180.109 40.2113 180.376 39.6374 180.895 39.4486C181.414 39.2597 181.988 39.5272 182.177 40.0462ZM185.424 43.121C185.943 42.9321 186.211 42.3582 186.022 41.8392C185.833 41.3203 185.259 41.0527 184.74 41.2416C184.221 41.4305 183.954 42.0043 184.143 42.5233C184.332 43.0423 184.905 43.3098 185.424 43.121Z" fill="white"/>
<path fill-rule="evenodd" clip-rule="evenodd" d="M222.939 15.0483C222.515 14.8508 221.836 14.7511 221.117 14.7483C220.354 14.7453 219.415 14.8502 218.421 15.1594C216.71 15.6916 214.848 16.8271 213.469 19.0045C213.443 19.0266 213.418 19.0503 213.394 19.0756L211.22 21.3719C210.84 21.7729 210.857 22.4058 211.259 22.7855C211.469 22.9851 211.744 23.075 212.013 23.0572C211.845 24.4586 211.955 25.9375 212.322 27.3508C212.519 28.1107 212.861 29.2082 213.216 30.3471C213.366 30.8277 213.518 31.3161 213.663 31.7892C213.1 32.0462 212.584 32.2971 212.172 32.5273C211.738 32.7702 211.253 33.05 210.993 33.4922C210.881 33.6806 210.732 34.0513 210.889 34.4839C211.205 35.3516 212.279 35.869 213.06 36.2332C213.841 36.5975 214.928 37.0878 215.796 36.772C216.229 36.6146 216.416 36.2615 216.489 36.0553C216.66 35.5713 216.563 35.0204 216.47 34.5316C216.382 34.0681 216.242 33.5118 216.077 32.9152C216.533 32.7217 217.004 32.5245 217.469 32.3303C218.57 31.8701 219.63 31.4266 220.339 31.0894C221.658 30.4621 222.861 29.5954 223.827 28.5664C223.986 28.7835 224.232 28.9363 224.52 28.9695C225.069 29.0326 225.565 28.639 225.628 28.0904L225.989 24.9488C225.993 24.9142 225.996 24.8799 225.996 24.8458C226.777 22.3893 226.45 20.2337 225.758 18.5807C225.356 17.6202 224.833 16.8337 224.34 16.2515C223.876 15.7024 223.363 15.2458 222.939 15.0483ZM216.784 30.4487C216.368 30.6225 215.938 30.8019 215.508 30.9838C215.371 30.5375 215.232 30.0932 215.098 29.6625C214.759 28.5759 214.447 27.5758 214.258 26.8481C213.725 24.7983 213.863 22.6811 214.604 21.092C215.739 18.6575 217.477 17.5474 219.015 17.0692C219.795 16.8266 220.529 16.746 221.109 16.7483C221.43 16.7496 221.783 16.7567 222.092 16.8603L222.094 16.8611L222.096 16.8622C222.373 17.0319 222.606 17.2978 222.813 17.5431C223.188 17.9858 223.598 18.5998 223.913 19.3533C224.535 20.8386 224.802 22.8837 223.667 25.3182C222.926 26.9073 221.393 28.3736 219.48 29.2834C218.801 29.6063 217.834 30.01 216.784 30.4487ZM213.377 34.1493C213.623 34.0197 213.909 33.8796 214.227 33.7315C214.317 34.0699 214.394 34.3795 214.453 34.6515C214.278 34.5859 214.093 34.5079 213.906 34.4206C213.718 34.3334 213.539 34.2412 213.377 34.1493ZM219.558 22.2988C220.309 22.6489 221.201 22.3241 221.551 21.5733C221.902 20.8225 221.577 19.93 220.826 19.5799C220.075 19.2298 219.183 19.5546 218.833 20.3055C218.482 21.0563 218.807 21.9487 219.558 22.2988Z" fill="white"/>
<path fill-rule="evenodd" clip-rule="evenodd" d="M247.68 8.69205C249.115 5.62592 251.227 3.62258 253.334 2.53017C255.394 1.46232 257.595 1.20316 259.117 1.9126C260.13 2.3852 260.811 3.1165 261.138 4.07097C261.449 4.98069 261.404 5.98997 261.201 6.98977C260.805 8.93945 259.709 11.2916 258.592 13.6867L258.501 13.8808C257.384 16.2759 256.288 18.6282 255.048 20.1845C254.413 20.9826 253.669 21.6662 252.772 22.0123C251.83 22.3754 250.833 22.324 249.819 21.8514C248.298 21.1419 247.081 19.2889 246.575 17.0247C246.058 14.7079 246.235 11.8018 247.662 8.73114C247.668 8.718 247.674 8.70496 247.68 8.69205ZM250.654 9.41376C250.322 9.25929 250.032 9.0859 249.802 8.91701C250.325 7.93159 250.925 7.09768 251.562 6.40208C252.34 7.0197 253.279 7.32258 254.343 7.2935C254.895 7.27841 255.33 6.81863 255.315 6.26655C255.3 5.71447 254.84 5.27916 254.288 5.29425C253.831 5.30675 253.438 5.22055 253.091 5.02789C253.479 4.74526 253.87 4.50539 254.255 4.30574C256.015 3.39327 257.527 3.37811 258.272 3.72522C258.844 3.99219 259.113 4.33053 259.246 4.71898C259.394 5.15218 259.41 5.75911 259.241 6.59204C258.898 8.28148 257.906 10.4236 256.734 12.9385C255.561 15.4535 254.558 17.5901 253.484 18.9387C252.954 19.6036 252.479 19.9815 252.052 20.1463C251.669 20.2941 251.237 20.3057 250.664 20.0388C249.92 19.6916 248.959 18.5233 248.527 16.5885C248.491 16.4259 248.459 16.259 248.431 16.0879C248.948 16.2825 249.512 16.3731 250.116 16.3566C250.669 16.3415 251.104 15.8817 251.089 15.3296C251.074 14.7776 250.614 14.3422 250.062 14.3573C249.36 14.3765 248.808 14.1629 248.347 13.6882C248.424 12.7753 248.624 11.798 248.984 10.7778C249.252 10.9472 249.533 11.0978 249.808 11.2264C250.557 11.5756 251.452 11.8463 252.23 11.8251C252.782 11.81 253.217 11.3502 253.202 10.7981C253.187 10.246 252.727 9.81071 252.175 9.8258C251.835 9.8351 251.264 9.6985 250.654 9.41376Z" fill="white"/>
<path fill-rule="evenodd" clip-rule="evenodd" d="M16.5928 135.368C18.0277 132.302 20.1396 130.299 22.2468 129.206C24.3065 128.139 26.508 127.879 28.0294 128.589C29.0429 129.061 29.7236 129.793 30.0505 130.747C30.3621 131.657 30.3166 132.666 30.1137 133.666C29.7181 135.616 28.6212 137.968 27.5042 140.363L27.4137 140.557C26.2969 142.952 25.2001 145.304 23.9609 146.861C23.3254 147.659 22.5815 148.342 21.6843 148.689C20.7431 149.052 19.7453 149 18.7318 148.528C17.2104 147.818 15.9938 145.965 15.4879 143.701C14.9702 141.384 15.1474 138.478 16.5745 135.407C16.5803 135.394 16.5864 135.381 16.5928 135.368ZM19.5663 136.09C19.2351 135.936 18.9448 135.762 18.7148 135.593C19.238 134.608 19.8375 133.774 20.4743 133.078C21.2522 133.696 22.1915 133.999 23.2552 133.97C23.8073 133.955 24.2426 133.495 24.2275 132.943C24.2124 132.391 23.7527 131.955 23.2006 131.971C22.7434 131.983 22.3502 131.897 22.0041 131.704C22.3919 131.422 22.7822 131.182 23.1673 130.982C24.9273 130.07 26.4398 130.054 27.1841 130.401C27.7567 130.668 28.0254 131.007 28.1584 131.395C28.3068 131.828 28.3227 132.435 28.1537 133.268C27.8108 134.958 26.8191 137.1 25.6463 139.615C24.4736 142.13 23.4702 144.266 22.3963 145.615C21.8669 146.28 21.3917 146.658 20.9645 146.823C20.5814 146.97 20.1496 146.982 19.577 146.715C18.8326 146.368 17.8721 145.2 17.4397 143.265C17.4034 143.102 17.3711 142.935 17.3433 142.764C17.8605 142.959 18.4247 143.049 19.0291 143.033C19.5811 143.018 20.0164 142.558 20.0014 142.006C19.9863 141.454 19.5265 141.019 18.9744 141.034C18.2722 141.053 17.7207 140.839 17.2594 140.364C17.3363 139.452 17.537 138.474 17.8966 137.454C18.165 137.623 18.4453 137.774 18.7211 137.903C19.4699 138.252 20.3648 138.523 21.1421 138.501C21.6942 138.486 22.1295 138.026 22.1144 137.474C22.0994 136.922 21.6396 136.487 21.0875 136.502C20.7472 136.511 20.177 136.375 19.5663 136.09Z" fill="white"/>
<path fill-rule="evenodd" clip-rule="evenodd" d="M49.0791 120.999C48.9656 120.076 49.5045 119.196 50.3789 118.878L58.2835 116.001C59.1578 115.683 60.1361 116.01 60.6428 116.79L63.1192 120.605C65.5134 124.292 64.1452 129.157 60.3765 131.131C60.3853 131.151 60.3936 131.172 60.4012 131.193L61.4272 134.012L64.2463 132.986C64.7653 132.797 65.3391 133.065 65.528 133.584C65.7169 134.103 65.4493 134.676 64.9304 134.865L61.1716 136.233L57.4128 137.601C56.8938 137.79 56.32 137.523 56.1311 137.004C55.9422 136.485 56.2098 135.911 56.7288 135.722L59.5479 134.696L58.5218 131.877C58.5142 131.856 58.5073 131.835 58.5012 131.814C54.3451 132.724 50.1699 129.877 49.6337 125.513L49.0791 120.999ZM51.0643 120.757L51.6188 125.269C52.0395 128.693 55.5359 130.835 58.7774 129.655C62.019 128.476 63.3203 124.587 61.4418 121.694L58.9662 117.881L51.0643 120.757Z" fill="white"/>
<path fill-rule="evenodd" clip-rule="evenodd" d="M92.9836 103.371C94.1038 102.964 95.3296 103.62 95.6111 104.779L99.4129 120.422C99.6535 121.412 99.1111 122.425 98.1535 122.773L90.4387 125.581C89.481 125.93 88.4145 125.503 87.9623 124.589L80.8194 110.162C80.2905 109.094 80.8076 107.803 81.9277 107.395L92.9836 103.371ZM93.6677 105.251L82.6117 109.275L84.3186 112.722C84.579 112.566 84.9045 112.393 85.2939 112.225C86.3965 111.748 88.0032 111.317 90.0767 111.433C91.8051 111.529 93.103 111.17 93.9545 110.802C94.3764 110.62 94.6909 110.434 94.8946 110.299L93.6677 105.251ZM95.388 112.33C95.1985 112.431 94.985 112.535 94.7478 112.638C93.6452 113.114 92.0385 113.546 89.9651 113.43C88.2366 113.333 86.9387 113.693 86.0872 114.061C85.7064 114.225 85.4131 114.392 85.2099 114.522L89.7546 123.702L97.4694 120.894L95.388 112.33ZM90.2782 116.062C90.4671 116.581 90.1995 117.155 89.6805 117.344C89.1615 117.533 88.5877 117.265 88.3988 116.746C88.2099 116.227 88.4775 115.653 88.9965 115.464C89.5155 115.276 90.0893 115.543 90.2782 116.062ZM93.5257 119.137C94.0446 118.948 94.3122 118.374 94.1233 117.855C93.9344 117.336 93.3606 117.069 92.8416 117.257C92.3226 117.446 92.0551 118.02 92.2439 118.539C92.4328 119.058 93.0067 119.326 93.5257 119.137Z" fill="white"/>
<path fill-rule="evenodd" clip-rule="evenodd" d="M131.04 91.0642C130.617 90.8666 129.937 90.767 129.218 90.7642C128.455 90.7612 127.517 90.8661 126.522 91.1753C124.811 91.7075 122.95 92.843 121.57 95.0203C121.544 95.0425 121.519 95.0662 121.495 95.0914L119.321 97.3877C118.941 97.7888 118.959 98.4217 119.36 98.8014C119.57 99.001 119.845 99.0909 120.114 99.0731C119.947 100.474 120.056 101.953 120.423 103.367C120.62 104.127 120.962 105.224 121.317 106.363C121.467 106.844 121.619 107.332 121.764 107.805C121.201 108.062 120.685 108.313 120.273 108.543C119.839 108.786 119.355 109.066 119.094 109.508C118.983 109.696 118.833 110.067 118.99 110.5C119.306 111.367 120.38 111.885 121.161 112.249C121.943 112.613 123.03 113.104 123.897 112.788C124.33 112.63 124.517 112.277 124.59 112.071C124.762 111.587 124.665 111.036 124.571 110.548C124.483 110.084 124.344 109.528 124.179 108.931C124.634 108.738 125.106 108.54 125.57 108.346C126.671 107.886 127.732 107.443 128.44 107.105C129.759 106.478 130.962 105.611 131.928 104.582C132.087 104.799 132.333 104.952 132.621 104.985C133.17 105.049 133.666 104.655 133.729 104.106L134.091 100.965C134.095 100.93 134.097 100.896 134.097 100.862C134.878 98.4052 134.552 96.2496 133.859 94.5965C133.457 93.6361 132.934 92.8495 132.441 92.2674C131.977 91.7183 131.464 91.2617 131.04 91.0642ZM124.885 106.465C124.469 106.638 124.039 106.818 123.609 107C123.472 106.553 123.334 106.109 123.199 105.678C122.86 104.592 122.548 103.592 122.359 102.864C121.826 100.814 121.964 98.697 122.705 97.1078C123.84 94.6734 125.578 93.5632 127.116 93.0851C127.896 92.8425 128.63 92.7619 129.21 92.7642C129.531 92.7654 129.884 92.7726 130.193 92.8762L130.195 92.8769L130.197 92.8781C130.474 93.0478 130.707 93.3137 130.914 93.559C131.289 94.0017 131.699 94.6157 132.014 95.3692C132.637 96.8545 132.903 98.8996 131.768 101.334C131.027 102.923 129.494 104.389 127.581 105.299C126.902 105.622 125.936 106.026 124.885 106.465ZM121.478 110.165C121.724 110.036 122.011 109.895 122.328 109.747C122.419 110.086 122.496 110.395 122.555 110.667C122.38 110.602 122.194 110.524 122.007 110.436C121.82 110.349 121.64 110.257 121.478 110.165ZM127.659 98.3147C128.41 98.6648 129.303 98.34 129.653 97.5892C130.003 96.8384 129.678 95.9459 128.927 95.5958C128.176 95.2457 127.284 95.5705 126.934 96.3213C126.584 97.0721 126.908 97.9646 127.659 98.3147Z" fill="white"/>
<path fill-rule="evenodd" clip-rule="evenodd" d="M155.781 84.7079C157.216 81.6418 159.328 79.6384 161.435 78.546C163.495 77.4782 165.697 77.219 167.218 77.9285C168.231 78.4011 168.912 79.1324 169.239 80.0868C169.551 80.9966 169.505 82.0058 169.302 83.0056C168.907 84.9553 167.81 87.3075 166.693 89.7026L166.602 89.8967C165.486 92.2918 164.389 94.6441 163.149 96.2004C162.514 96.9985 161.77 97.682 160.873 98.0281C159.932 98.3912 158.934 98.3398 157.92 97.8672C156.399 97.1578 155.182 95.3048 154.676 93.0405C154.159 90.7238 154.336 87.8177 155.763 84.747C155.769 84.7339 155.775 84.7208 155.781 84.7079ZM158.755 85.4296C158.424 85.2752 158.133 85.1018 157.903 84.9329C158.427 83.9475 159.026 83.1135 159.663 82.418C160.441 83.0356 161.38 83.3385 162.444 83.3094C162.996 83.2943 163.431 82.8345 163.416 82.2824C163.401 81.7303 162.941 81.295 162.389 81.3101C161.932 81.3226 161.539 81.2364 161.193 81.0438C161.581 80.7611 161.971 80.5213 162.356 80.3216C164.116 79.4091 165.628 79.394 166.373 79.7411C166.945 80.0081 167.214 80.3464 167.347 80.7349C167.495 81.1681 167.511 81.775 167.342 82.6079C166.999 84.2974 166.008 86.4394 164.835 88.9544C163.662 91.4694 162.659 93.606 161.585 94.9546C161.056 95.6194 160.58 95.9974 160.153 96.1622C159.77 96.3099 159.338 96.3216 158.766 96.0546C158.021 95.7075 157.061 94.5392 156.628 92.6044C156.592 92.4418 156.56 92.2749 156.532 92.1037C157.049 92.2983 157.613 92.389 158.218 92.3725C158.77 92.3574 159.205 91.8976 159.19 91.3455C159.175 90.7934 158.715 90.3581 158.163 90.3732C157.461 90.3924 156.909 90.1787 156.448 89.7041C156.525 88.7911 156.726 87.8139 157.085 86.7936C157.354 86.963 157.634 87.1136 157.91 87.2422C158.659 87.5914 159.553 87.8622 160.331 87.8409C160.883 87.8258 161.318 87.366 161.303 86.814C161.288 86.2619 160.828 85.8266 160.276 85.8417C159.936 85.851 159.366 85.7144 158.755 85.4296Z" fill="white"/>
<path fill-rule="evenodd" clip-rule="evenodd" d="M188.268 70.339C188.154 69.4154 188.693 68.5358 189.567 68.2176L197.472 65.3406C198.346 65.0223 199.325 65.3497 199.831 66.1301L202.308 69.9443C204.702 73.6316 203.334 78.4967 199.565 80.4709C199.574 80.491 199.582 80.5115 199.59 80.5324L200.616 83.3515L203.435 82.3255C203.954 82.1366 204.528 82.4042 204.717 82.9231C204.906 83.4421 204.638 84.0159 204.119 84.2048L200.36 85.5729L196.601 86.941C196.082 87.1299 195.509 86.8623 195.32 86.3433C195.131 85.8244 195.398 85.2505 195.917 85.0616L198.736 84.0356L197.71 81.2165C197.703 81.1955 197.696 81.1745 197.69 81.1534C193.534 82.0636 189.358 79.2162 188.822 74.8526L188.268 70.339ZM190.253 70.0965L190.807 74.6087C191.228 78.0325 194.725 80.1749 197.966 78.9951C201.208 77.8152 202.509 73.9266 200.63 71.0334L198.155 67.2204L190.253 70.0965Z" fill="white"/>
<path fill-rule="evenodd" clip-rule="evenodd" d="M232.172 52.7108C233.292 52.3031 234.518 52.9596 234.8 54.1179L238.601 69.761C238.842 70.7513 238.3 71.7641 237.342 72.1127L229.627 74.9206C228.67 75.2692 227.603 74.8419 227.151 73.9287L220.008 59.5016C219.479 58.4333 219.996 57.1425 221.116 56.7348L232.172 52.7108ZM232.856 54.5902L221.8 58.6142L223.507 62.0616C223.768 61.9057 224.093 61.7323 224.483 61.5641C225.585 61.0877 227.192 60.6563 229.265 60.7722C230.994 60.8688 232.292 60.5091 233.143 60.1411C233.565 59.9589 233.879 59.7736 234.083 59.6385L232.856 54.5902ZM234.577 61.669C234.387 61.7702 234.174 61.8746 233.936 61.9771C232.834 62.4535 231.227 62.8849 229.154 62.7691C227.425 62.6725 226.127 63.0322 225.276 63.4001C224.895 63.5646 224.602 63.7315 224.398 63.8618L228.943 73.0413L236.658 70.2333L234.577 61.669ZM229.467 65.4014C229.656 65.9204 229.388 66.4943 228.869 66.6832C228.35 66.8721 227.776 66.6045 227.587 66.0855C227.399 65.5665 227.666 64.9927 228.185 64.8038C228.704 64.6149 229.278 64.8825 229.467 65.4014ZM232.714 68.4762C233.233 68.2873 233.501 67.7134 233.312 67.1945C233.123 66.6755 232.549 66.4079 232.03 66.5968C231.511 66.7857 231.244 67.3595 231.433 67.8785C231.621 68.3975 232.195 68.6651 232.714 68.4762Z" fill="white"/>
<path fill-rule="evenodd" clip-rule="evenodd" d="M270.229 40.4035C269.805 40.206 269.126 40.1064 268.406 40.1035C267.644 40.1005 266.705 40.2054 265.711 40.5146C263.999 41.0468 262.138 42.1823 260.758 44.3597C260.733 44.3819 260.708 44.4056 260.684 44.4308L258.51 46.7271C258.13 47.1281 258.147 47.7611 258.548 48.1408C258.759 48.3403 259.034 48.4302 259.302 48.4124C259.135 49.8138 259.245 51.2927 259.612 52.7061C259.809 53.4659 260.151 54.5634 260.506 55.7023C260.656 56.1829 260.808 56.6713 260.953 57.1444C260.389 57.4015 259.874 57.6523 259.462 57.8826C259.027 58.1254 258.543 58.4052 258.282 58.8474C258.171 59.0358 258.021 59.4066 258.179 59.8391C258.495 60.7068 259.569 61.2243 260.35 61.5885C261.131 61.9527 262.218 62.4431 263.086 62.1272C263.518 61.9698 263.706 61.6167 263.779 61.4105C263.95 60.9265 263.853 60.3757 263.76 59.8869C263.672 59.4233 263.532 58.867 263.367 58.2704C263.823 58.0769 264.294 57.8797 264.759 57.6855C265.859 57.2254 266.92 56.7819 267.629 56.4446C268.948 55.8173 270.151 54.9506 271.117 53.9216C271.276 54.1388 271.521 54.2915 271.81 54.3247C272.359 54.3879 272.854 53.9943 272.918 53.4456L273.279 50.3041C273.283 50.2695 273.285 50.2351 273.286 50.201C274.067 47.7446 273.74 45.589 273.048 43.9359C272.645 42.9754 272.122 42.1889 271.63 41.6067C271.166 41.0576 270.652 40.6011 270.229 40.4035ZM264.074 55.8039C263.657 55.9777 263.228 56.1571 262.798 56.3391C262.661 55.8927 262.522 55.4484 262.388 55.0177C262.049 53.9311 261.736 52.931 261.547 52.2033C261.015 50.1536 261.153 48.0363 261.894 46.4472C263.029 44.0128 264.767 42.9026 266.305 42.4244C267.085 42.1818 267.819 42.1012 268.399 42.1035C268.72 42.1048 269.073 42.112 269.381 42.2156L269.383 42.2163L269.385 42.2175C269.663 42.3871 269.896 42.653 270.103 42.8983C270.477 43.341 270.887 43.955 271.203 44.7085C271.825 46.1938 272.092 48.2389 270.957 50.6734C270.216 52.2625 268.682 53.7288 266.77 54.6386C266.091 54.9616 265.124 55.3653 264.074 55.8039ZM260.666 59.5045C260.913 59.3749 261.199 59.2348 261.517 59.0867C261.607 59.4251 261.684 59.7347 261.743 60.0067C261.568 59.9411 261.382 59.8631 261.195 59.7759C261.008 59.6886 260.829 59.5965 260.666 59.5045ZM266.848 47.6541C267.599 48.0042 268.491 47.6793 268.841 46.9285C269.191 46.1777 268.867 45.2852 268.116 44.9351C267.365 44.585 266.472 44.9099 266.122 45.6607C265.772 46.4115 266.097 47.304 266.848 47.6541Z" fill="white"/>
<path fill-rule="evenodd" clip-rule="evenodd" d="M62.9134 161.076C64.3484 158.01 66.4603 156.007 68.5674 154.914C70.6272 153.846 72.8287 153.587 74.3501 154.297C75.3636 154.769 76.0443 155.501 76.3712 156.455C76.6827 157.365 76.6373 158.374 76.4344 159.374C76.0388 161.323 74.9418 163.676 73.8249 166.071L73.7344 166.265C72.6176 168.66 71.5208 171.012 70.2816 172.569C69.6461 173.367 68.9022 174.05 68.005 174.396C67.0637 174.759 66.066 174.708 65.0525 174.235C63.5311 173.526 62.3145 171.673 61.8086 169.409C61.2909 167.092 61.4681 164.186 62.8952 161.115C62.901 161.102 62.9071 161.089 62.9134 161.076ZM65.887 161.798C65.5557 161.643 65.2655 161.47 65.0355 161.301C65.5587 160.316 66.1582 159.482 66.795 158.786C67.5728 159.404 68.5122 159.707 69.5759 159.678C70.128 159.662 70.5633 159.203 70.5482 158.651C70.5331 158.099 70.0733 157.663 69.5213 157.678C69.0641 157.691 68.6708 157.605 68.3247 157.412C68.7126 157.129 69.1029 156.889 69.488 156.69C71.248 155.777 72.7604 155.762 73.5048 156.109C74.0774 156.376 74.346 156.715 74.4791 157.103C74.6274 157.536 74.6433 158.143 74.4743 158.976C74.1315 160.666 73.1398 162.808 71.967 165.323C70.7943 167.838 69.7908 169.974 68.717 171.323C68.1876 171.988 67.7124 172.366 67.2852 172.53C66.9021 172.678 66.4702 172.69 65.8977 172.423C65.1533 172.076 64.1928 170.907 63.7604 168.973C63.7241 168.81 63.6918 168.643 63.664 168.472C64.1812 168.667 64.7454 168.757 65.3497 168.741C65.9018 168.726 66.3371 168.266 66.322 167.714C66.3069 167.162 65.8472 166.726 65.2951 166.741C64.5929 166.761 64.0414 166.547 63.5801 166.072C63.657 165.159 63.8577 164.182 64.2173 163.162C64.4856 163.331 64.766 163.482 65.0418 163.61C65.7906 163.96 66.6855 164.23 67.4628 164.209C68.0149 164.194 68.4502 163.734 68.4351 163.182C68.42 162.63 67.9602 162.195 67.4082 162.21C67.0679 162.219 66.4976 162.083 65.887 161.798Z" fill="white"/>
<path fill-rule="evenodd" clip-rule="evenodd" d="M95.3999 146.707C95.2864 145.784 95.8253 144.904 96.6997 144.586L104.604 141.709C105.479 141.391 106.457 141.718 106.964 142.499L109.44 146.313C111.834 150 110.466 154.865 106.697 156.839C106.706 156.859 106.714 156.88 106.722 156.901L107.748 159.72L110.567 158.694C111.086 158.505 111.66 158.773 111.849 159.292C112.038 159.811 111.77 160.384 111.251 160.573L107.492 161.941L103.734 163.309C103.215 163.498 102.641 163.231 102.452 162.712C102.263 162.193 102.531 161.619 103.05 161.43L105.869 160.404L104.843 157.585C104.835 157.564 104.828 157.543 104.822 157.522C100.666 158.432 96.4907 155.585 95.9545 151.221L95.3999 146.707ZM97.3851 146.465L97.9396 150.977C98.3603 154.401 101.857 156.543 105.098 155.363C108.34 154.184 109.641 150.295 107.763 147.402L105.287 143.589L97.3851 146.465Z" fill="white"/>
<path fill-rule="evenodd" clip-rule="evenodd" d="M139.304 129.079C140.424 128.672 141.65 129.328 141.932 130.486L145.734 146.129C145.974 147.12 145.432 148.133 144.474 148.481L136.759 151.289C135.802 151.638 134.735 151.21 134.283 150.297L127.14 135.87C126.611 134.802 127.128 133.511 128.248 133.103L139.304 129.079ZM139.988 130.959L128.932 134.983L130.639 138.43C130.9 138.274 131.225 138.101 131.615 137.932C132.717 137.456 134.324 137.025 136.397 137.141C138.126 137.237 139.424 136.877 140.275 136.51C140.697 136.327 141.012 136.142 141.215 136.007L139.988 130.959ZM141.709 138.037C141.519 138.139 141.306 138.243 141.068 138.346C139.966 138.822 138.359 139.253 136.286 139.137C134.557 139.041 133.259 139.401 132.408 139.768C132.027 139.933 131.734 140.1 131.531 140.23L136.075 149.41L143.79 146.602L141.709 138.037ZM136.599 141.77C136.788 142.289 136.52 142.863 136.001 143.052C135.482 143.24 134.908 142.973 134.719 142.454C134.531 141.935 134.798 141.361 135.317 141.172C135.836 140.983 136.41 141.251 136.599 141.77ZM139.846 144.845C140.365 144.656 140.633 144.082 140.444 143.563C140.255 143.044 139.681 142.776 139.162 142.965C138.643 143.154 138.376 143.728 138.565 144.247C138.754 144.766 139.327 145.033 139.846 144.845Z" fill="white"/>
<path fill-rule="evenodd" clip-rule="evenodd" d="M177.361 116.772C176.937 116.574 176.258 116.475 175.538 116.472C174.776 116.469 173.837 116.574 172.843 116.883C171.132 117.415 169.27 118.55 167.89 120.728C167.865 120.75 167.84 120.774 167.816 120.799L165.642 123.095C165.262 123.496 165.279 124.129 165.68 124.509C165.891 124.709 166.166 124.798 166.434 124.781C166.267 126.182 166.377 127.661 166.744 129.074C166.941 129.834 167.283 130.932 167.638 132.071C167.788 132.551 167.94 133.039 168.085 133.513C167.521 133.77 167.006 134.02 166.594 134.251C166.16 134.494 165.675 134.773 165.414 135.216C165.303 135.404 165.154 135.775 165.311 136.207C165.627 137.075 166.701 137.592 167.482 137.957C168.263 138.321 169.35 138.811 170.218 138.495C170.65 138.338 170.838 137.985 170.911 137.779C171.082 137.295 170.985 136.744 170.892 136.255C170.804 135.791 170.664 135.235 170.499 134.639C170.955 134.445 171.426 134.248 171.891 134.054C172.992 133.594 174.052 133.15 174.761 132.813C176.08 132.186 177.283 131.319 178.249 130.29C178.408 130.507 178.654 130.66 178.942 130.693C179.491 130.756 179.987 130.362 180.05 129.814L180.411 126.672C180.415 126.638 180.417 126.603 180.418 126.569C181.199 124.113 180.872 121.957 180.18 120.304C179.778 119.344 179.254 118.557 178.762 117.975C178.298 117.426 177.785 116.969 177.361 116.772ZM171.206 132.172C170.789 132.346 170.36 132.525 169.93 132.707C169.793 132.261 169.654 131.817 169.52 131.386C169.181 130.299 168.869 129.299 168.68 128.571C168.147 126.522 168.285 124.404 169.026 122.815C170.161 120.381 171.899 119.271 173.437 118.793C174.217 118.55 174.951 118.469 175.531 118.472C175.852 118.473 176.205 118.48 176.513 118.584L176.516 118.584L176.518 118.586C176.795 118.755 177.028 119.021 177.235 119.266C177.61 119.709 178.019 120.323 178.335 121.077C178.957 122.562 179.224 124.607 178.089 127.042C177.348 128.631 175.814 130.097 173.902 131.007C173.223 131.33 172.256 131.733 171.206 132.172ZM167.798 135.873C168.045 135.743 168.331 135.603 168.649 135.455C168.739 135.793 168.816 136.103 168.875 136.375C168.7 136.309 168.514 136.231 168.327 136.144C168.14 136.057 167.961 135.965 167.798 135.873ZM173.98 124.022C174.731 124.372 175.623 124.048 175.973 123.297C176.323 122.546 175.999 121.653 175.248 121.303C174.497 120.953 173.605 121.278 173.254 122.029C172.904 122.78 173.229 123.672 173.98 124.022Z" fill="white"/>
<path fill-rule="evenodd" clip-rule="evenodd" d="M202.102 110.416C203.537 107.35 205.649 105.346 207.756 104.254C209.816 103.186 212.017 102.927 213.539 103.636C214.552 104.109 215.233 104.84 215.56 105.795C215.871 106.704 215.826 107.714 215.623 108.713C215.227 110.663 214.13 113.015 213.013 115.41L212.923 115.604C211.806 118 210.709 120.352 209.47 121.908C208.835 122.706 208.091 123.39 207.194 123.736C206.252 124.099 205.255 124.048 204.241 123.575C202.72 122.866 201.503 121.013 200.997 118.748C200.479 116.432 200.657 113.525 202.084 110.455C202.09 110.442 202.096 110.429 202.102 110.416ZM205.076 111.137C204.744 110.983 204.454 110.81 204.224 110.641C204.747 109.655 205.347 108.821 205.984 108.126C206.761 108.743 207.701 109.046 208.765 109.017C209.317 109.002 209.752 108.542 209.737 107.99C209.722 107.438 209.262 107.003 208.71 107.018C208.253 107.03 207.859 106.944 207.513 106.752C207.901 106.469 208.291 106.229 208.677 106.029C210.437 105.117 211.949 105.102 212.693 105.449C213.266 105.716 213.535 106.054 213.668 106.443C213.816 106.876 213.832 107.483 213.663 108.316C213.32 110.005 212.328 112.147 211.156 114.662C209.983 117.177 208.979 119.314 207.906 120.662C207.376 121.327 206.901 121.705 206.474 121.87C206.091 122.018 205.659 122.029 205.086 121.762C204.342 121.415 203.381 120.247 202.949 118.312C202.913 118.15 202.88 117.983 202.853 117.812C203.37 118.006 203.934 118.097 204.538 118.08C205.09 118.065 205.526 117.605 205.511 117.053C205.496 116.501 205.036 116.066 204.484 116.081C203.781 116.1 203.23 115.886 202.769 115.412C202.846 114.499 203.046 113.522 203.406 112.501C203.674 112.671 203.955 112.821 204.23 112.95C204.979 113.299 205.874 113.57 206.651 113.549C207.203 113.534 207.639 113.074 207.624 112.522C207.609 111.97 207.149 111.534 206.597 111.549C206.256 111.559 205.686 111.422 205.076 111.137Z" fill="white"/>
<path fill-rule="evenodd" clip-rule="evenodd" d="M234.588 96.0467C234.475 95.1232 235.014 94.2436 235.888 93.9253L243.793 91.0483C244.667 90.7301 245.646 91.0575 246.152 91.8379L248.629 95.652C251.023 99.3394 249.655 104.204 245.886 106.179C245.895 106.199 245.903 106.219 245.911 106.24L246.937 109.059L249.756 108.033C250.275 107.844 250.849 108.112 251.037 108.631C251.226 109.15 250.959 109.724 250.44 109.913L246.681 111.281L242.922 112.649C242.403 112.838 241.829 112.57 241.641 112.051C241.452 111.532 241.719 110.958 242.238 110.769L245.057 109.743L244.031 106.924C244.024 106.903 244.017 106.882 244.011 106.861C239.855 107.771 235.679 104.924 235.143 100.56L234.588 96.0467ZM236.574 95.8042L237.128 100.316C237.549 103.74 241.045 105.883 244.287 104.703C247.528 103.523 248.83 99.6344 246.951 96.7412L244.476 92.9282L236.574 95.8042Z" fill="white"/>
<path fill-rule="evenodd" clip-rule="evenodd" d="M278.493 78.4186C279.613 78.0109 280.839 78.6673 281.12 79.8256L284.922 95.4687C285.163 96.459 284.62 97.4719 283.663 97.8204L275.948 100.628C274.99 100.977 273.924 100.55 273.472 99.6364L266.329 85.2094C265.8 84.1411 266.317 82.8503 267.437 82.4426L278.493 78.4186ZM279.177 80.2979L268.121 84.322L269.828 87.7694C270.088 87.6135 270.414 87.4401 270.803 87.2718C271.906 86.7955 273.513 86.3641 275.586 86.4799C277.314 86.5765 278.612 86.2168 279.464 85.8489C279.886 85.6666 280.2 85.4813 280.404 85.3462L279.177 80.2979ZM280.897 87.3768C280.708 87.478 280.494 87.5824 280.257 87.6849C279.155 88.1612 277.548 88.5927 275.474 88.4768C273.746 88.3802 272.448 88.7399 271.596 89.1078C271.216 89.2723 270.922 89.4393 270.719 89.5696L275.264 98.749L282.979 95.9411L280.897 87.3768ZM275.788 91.1092C275.976 91.6282 275.709 92.202 275.19 92.3909C274.671 92.5798 274.097 92.3122 273.908 91.7933C273.719 91.2743 273.987 90.7004 274.506 90.5115C275.025 90.3226 275.599 90.5902 275.788 91.1092ZM279.035 94.1839C279.554 93.9951 279.822 93.4212 279.633 92.9022C279.444 92.3833 278.87 92.1157 278.351 92.3046C277.832 92.4934 277.564 93.0673 277.753 93.5863C277.942 94.1052 278.516 94.3728 279.035 94.1839Z" fill="white"/>
<path fill-rule="evenodd" clip-rule="evenodd" d="M188.881 153.602C190.001 153.194 191.227 153.851 191.508 155.009L195.31 170.652C195.551 171.642 195.008 172.655 194.051 173.004L186.336 175.812C185.378 176.16 184.312 175.733 183.859 174.82L176.716 160.393C176.188 159.324 176.705 158.034 177.825 157.626L188.881 153.602ZM189.565 155.481L178.509 159.505L180.216 162.953C180.476 162.797 180.802 162.623 181.191 162.455C182.294 161.979 183.9 161.547 185.974 161.663C187.702 161.76 189 161.4 189.852 161.032C190.274 160.85 190.588 160.665 190.792 160.53L189.565 155.481ZM191.285 162.56C191.096 162.661 190.882 162.766 190.645 162.868C189.542 163.345 187.936 163.776 185.862 163.66C184.134 163.564 182.836 163.923 181.984 164.291C181.603 164.456 181.31 164.623 181.107 164.753L185.652 173.932L193.367 171.124L191.285 162.56ZM186.175 166.293C186.364 166.812 186.097 167.385 185.578 167.574C185.059 167.763 184.485 167.496 184.296 166.977C184.107 166.458 184.375 165.884 184.894 165.695C185.413 165.506 185.986 165.774 186.175 166.293ZM189.423 169.367C189.942 169.178 190.209 168.605 190.02 168.086C189.832 167.567 189.258 167.299 188.739 167.488C188.22 167.677 187.952 168.251 188.141 168.77C188.33 169.289 188.904 169.556 189.423 169.367Z" fill="white"/>
<path fill-rule="evenodd" clip-rule="evenodd" d="M226.937 141.295C226.514 141.097 225.834 140.997 225.115 140.995C224.352 140.992 223.414 141.097 222.419 141.406C220.708 141.938 218.847 143.073 217.467 145.251C217.441 145.273 217.416 145.297 217.392 145.322L215.218 147.618C214.838 148.019 214.856 148.652 215.257 149.032C215.468 149.231 215.742 149.321 216.011 149.304C215.844 150.705 215.953 152.184 216.32 153.597C216.517 154.357 216.859 155.455 217.214 156.593C217.364 157.074 217.516 157.562 217.661 158.036C217.098 158.293 216.582 158.543 216.17 158.774C215.736 159.017 215.252 159.296 214.991 159.739C214.88 159.927 214.73 160.298 214.887 160.73C215.203 161.598 216.277 162.115 217.059 162.48C217.84 162.844 218.927 163.334 219.794 163.018C220.227 162.861 220.415 162.508 220.487 162.302C220.659 161.818 220.562 161.267 220.468 160.778C220.38 160.314 220.241 159.758 220.076 159.162C220.531 158.968 221.003 158.771 221.467 158.577C222.568 158.116 223.629 157.673 224.338 157.336C225.656 156.708 226.859 155.842 227.825 154.813C227.984 155.03 228.23 155.183 228.518 155.216C229.067 155.279 229.563 154.885 229.626 154.337L229.988 151.195C229.992 151.161 229.994 151.126 229.994 151.092C230.775 148.636 230.449 146.48 229.756 144.827C229.354 143.867 228.831 143.08 228.338 142.498C227.874 141.949 227.361 141.492 226.937 141.295ZM220.782 156.695C220.366 156.869 219.936 157.048 219.506 157.23C219.369 156.784 219.231 156.34 219.096 155.909C218.757 154.822 218.445 153.822 218.256 153.094C217.724 151.045 217.861 148.927 218.602 147.338C219.737 144.904 221.475 143.794 223.013 143.316C223.793 143.073 224.527 142.992 225.107 142.995C225.428 142.996 225.781 143.003 226.09 143.107L226.092 143.107L226.094 143.109C226.371 143.278 226.604 143.544 226.811 143.789C227.186 144.232 227.596 144.846 227.911 145.6C228.534 147.085 228.8 149.13 227.665 151.564C226.924 153.154 225.391 154.62 223.478 155.53C222.799 155.853 221.833 156.256 220.782 156.695ZM217.375 160.396C217.621 160.266 217.908 160.126 218.225 159.978C218.316 160.316 218.393 160.626 218.452 160.898C218.277 160.832 218.091 160.754 217.904 160.667C217.717 160.58 217.538 160.488 217.375 160.396ZM223.556 148.545C224.307 148.895 225.2 148.57 225.55 147.82C225.9 147.069 225.575 146.176 224.824 145.826C224.073 145.476 223.181 145.801 222.831 146.552C222.481 147.303 222.806 148.195 223.556 148.545Z" fill="white"/>
<path fill-rule="evenodd" clip-rule="evenodd" d="M251.678 134.938C253.113 131.872 255.225 129.869 257.332 128.777C259.392 127.709 261.594 127.449 263.115 128.159C264.129 128.632 264.809 129.363 265.136 130.317C265.448 131.227 265.402 132.236 265.199 133.236C264.804 135.186 263.707 137.538 262.59 139.933L262.499 140.127C261.383 142.522 260.286 144.875 259.047 146.431C258.411 147.229 257.667 147.913 256.77 148.259C255.829 148.622 254.831 148.57 253.817 148.098C252.296 147.388 251.08 145.535 250.574 143.271C250.056 140.954 250.233 138.048 251.66 134.977C251.666 134.964 251.672 134.951 251.678 134.938ZM254.652 135.66C254.321 135.506 254.031 135.332 253.801 135.163C254.324 134.178 254.923 133.344 255.56 132.648C256.338 133.266 257.277 133.569 258.341 133.54C258.893 133.525 259.328 133.065 259.313 132.513C259.298 131.961 258.838 131.525 258.286 131.541C257.829 131.553 257.436 131.467 257.09 131.274C257.478 130.992 257.868 130.752 258.253 130.552C260.013 129.64 261.525 129.624 262.27 129.972C262.842 130.239 263.111 130.577 263.244 130.965C263.392 131.399 263.408 132.005 263.239 132.838C262.897 134.528 261.905 136.67 260.732 139.185C259.559 141.7 258.556 143.836 257.482 145.185C256.953 145.85 256.477 146.228 256.05 146.393C255.667 146.54 255.235 146.552 254.663 146.285C253.918 145.938 252.958 144.77 252.525 142.835C252.489 142.672 252.457 142.505 252.429 142.334C252.946 142.529 253.51 142.619 254.115 142.603C254.667 142.588 255.102 142.128 255.087 141.576C255.072 141.024 254.612 140.589 254.06 140.604C253.358 140.623 252.806 140.409 252.345 139.935C252.422 139.022 252.623 138.044 252.982 137.024C253.251 137.194 253.531 137.344 253.807 137.473C254.556 137.822 255.451 138.093 256.228 138.071C256.78 138.056 257.215 137.597 257.2 137.044C257.185 136.492 256.725 136.057 256.173 136.072C255.833 136.081 255.263 135.945 254.652 135.66Z" fill="white"/>
</g>
</g>
<defs>
<clipPath id="clip0_277_552">
<rect width="274" height="154" fill="white"/>
</clipPath>
</defs>
</svg>
