<svg width="24" height="24" viewBox="0 0 24 24" fill="none" xmlns="http://www.w3.org/2000/svg">
<path fill-rule="evenodd" clip-rule="evenodd" d="M12 13.4143L17.6568 19.0711C18.0473 19.4617 18.6805 19.4617 19.071 19.0711C19.4615 18.6806 19.4615 18.0474 19.071 17.6569L13.4142 12.0001L19.071 6.34323C19.4615 5.9527 19.4615 5.31954 19.071 4.92901C18.6805 4.53849 18.0473 4.53849 17.6568 4.92901L12 10.5859L6.34309 4.929C5.95257 4.53848 5.3194 4.53848 4.92888 4.929C4.53836 5.31953 4.53836 5.95269 4.92888 6.34322L10.5857 12.0001L4.92888 17.6569C4.53836 18.0475 4.53836 18.6806 4.92888 19.0711C5.3194 19.4617 5.95257 19.4617 6.34309 19.0711L12 13.4143Z" fill="#09244B"/>
</svg>
