<svg width="16" height="16" viewBox="0 0 16 16" fill="none" xmlns="http://www.w3.org/2000/svg">
<path fill-rule="evenodd" clip-rule="evenodd" d="M7.11249 4.57764e-05C3.18437 4.57764e-05 0 3.18441 0 7.11253C0 11.0406 3.18437 14.225 7.11249 14.225C8.77505 14.225 10.3044 13.6546 11.5154 12.6987L14.5716 15.7549C14.8983 16.0817 15.4281 16.0817 15.7549 15.7549C16.0817 15.4281 16.0817 14.8983 15.7549 14.5715L12.6988 11.5154C13.6546 10.3043 14.225 8.77505 14.225 7.11253C14.225 3.18441 11.0406 4.57764e-05 7.11249 4.57764e-05ZM1.67353 7.11253C1.67353 4.10868 4.10863 1.67357 7.11249 1.67357C10.1163 1.67357 12.5515 4.10868 12.5515 7.11253C12.5515 10.1164 10.1163 12.5515 7.11249 12.5515C4.10863 12.5515 1.67353 10.1164 1.67353 7.11253Z" fill="#D9D9D9"/>
</svg>
