<svg width="21" height="21" viewBox="0 0 21 21" fill="none" xmlns="http://www.w3.org/2000/svg">
<path d="M4.8571 3C3.93662 3 3.19043 3.74619 3.19043 4.66667V16.3333C3.19043 17.2538 3.93662 18 4.8571 18H16.5238C17.4442 18 18.1904 17.2538 18.1904 16.3333V8.83333C18.1904 8.3731 17.8173 8 17.3571 8C16.8969 8 16.5238 8.3731 16.5238 8.83333V16.3333H4.8571V4.66667H8.19043C8.65067 4.66667 9.02376 4.29357 9.02376 3.83333C9.02376 3.3731 8.65067 3 8.19043 3H4.8571Z" fill="white"/>
<path d="M12.3571 3C11.8969 3 11.5238 3.3731 11.5238 3.83333C11.5238 4.29357 11.8969 4.66667 12.3571 4.66667H14.2506C13.8251 4.96344 13.3772 5.30189 12.9277 5.68219C11.4185 6.95892 9.83973 8.7502 9.06653 11.0698C8.92099 11.5064 9.15695 11.9784 9.59357 12.1239C10.0302 12.2694 10.5021 12.0335 10.6477 11.5969C11.289 9.67271 12.6257 8.1207 14.0041 6.95462C15.3781 5.79226 16.7434 5.05587 17.3595 4.75252C17.8265 4.52256 17.923 4.03717 17.847 3.71354C17.771 3.39027 17.4697 3 16.9511 3H12.3571Z" fill="white"/>
</svg>
